<svg version="1.1" viewBox="0.0 0.0 600.0 371.0" fill="none" stroke="none" stroke-linecap="square"
     stroke-miterlimit="10" width="600" height="371"
     xmlns="http://www.w3.org/2000/svg"><path fill="#ffffff" d="M0 0L600.0 0L600.0 371.0L0 371.0L0 0Z" fill-rule="nonzero"/><path stroke="#333333" stroke-width="1.0" stroke-linecap="butt" d="M108.5 332.5L581.5 332.5" fill-rule="nonzero"/><path stroke="#cccccc" stroke-width="1.0" stroke-linecap="butt" d="M108.5 277.5L581.5 277.5" fill-rule="nonzero"/><path stroke="#cccccc" stroke-width="1.0" stroke-linecap="butt" d="M108.5 222.5L581.5 222.5" fill-rule="nonzero"/><path stroke="#cccccc" stroke-width="1.0" stroke-linecap="butt" d="M108.5 166.5L581.5 166.5" fill-rule="nonzero"/><path stroke="#cccccc" stroke-width="1.0" stroke-linecap="butt" d="M108.5 111.5L581.5 111.5" fill-rule="nonzero"/><clipPath id="id_0"><path d="M108.55 111.78333L581.45 111.78333L581.45 332.45L108.55 332.45L108.55 111.78333Z" clip-rule="nonzero"/></clipPath><path stroke="#000000" stroke-width="2.0" stroke-linecap="butt" stroke-opacity="0.0" clip-path="url(#id_0)" d="M203.0 332.0L159.0 332.0L159.0 138.0C159.0 136.89543 159.89543 136.0 161.0 136.0L201.0 136.0C202.10457 136.0 203.0 136.89543 203.0 138.0Z" fill-rule="nonzero"/><path fill="#4285f4" clip-path="url(#id_0)" d="M203.0 332.0L159.0 332.0L159.0 138.0C159.0 136.89543 159.89543 136.0 161.0 136.0L201.0 136.0C202.10457 136.0 203.0 136.89543 203.0 138.0Z" fill-rule="nonzero"/><path stroke="#000000" stroke-width="2.0" stroke-linecap="butt" stroke-opacity="0.0" clip-path="url(#id_0)" d="M344.0 332.0L300.0 332.0L300.0 326.0C300.0 324.89542 300.89542 324.0 302.0 324.0L342.0 324.0C343.10458 324.0 344.0 324.89542 344.0 326.0Z" fill-rule="nonzero"/><path fill="#4285f4" clip-path="url(#id_0)" d="M344.0 332.0L300.0 332.0L300.0 326.0C300.0 324.89542 300.89542 324.0 302.0 324.0L342.0 324.0C343.10458 324.0 344.0 324.89542 344.0 326.0Z" fill-rule="nonzero"/><path stroke="#000000" stroke-width="2.0" stroke-linecap="butt" stroke-opacity="0.0" clip-path="url(#id_0)" d="M485.0 332.0L441.0 332.0L441.0 128.0C441.0 126.89543 441.89542 126.0 443.0 126.0L483.0 126.0C484.10458 126.0 485.0 126.89543 485.0 128.0Z" fill-rule="nonzero"/><path fill="#4285f4" clip-path="url(#id_0)" d="M485.0 332.0L441.0 332.0L441.0 128.0C441.0 126.89543 441.89542 126.0 443.0 126.0L483.0 126.0C484.10458 126.0 485.0 126.89543 485.0 128.0Z" fill-rule="nonzero"/><path stroke="#000000" stroke-width="2.0" stroke-linecap="butt" stroke-opacity="0.0" clip-path="url(#id_0)" d="M249.0 332.0L205.0 332.0L205.0 318.0C205.0 316.89542 205.89543 316.0 207.0 316.0L247.0 316.0C248.10457 316.0 249.0 316.89542 249.0 318.0Z" fill-rule="nonzero"/><path fill="#ea4335" clip-path="url(#id_0)" d="M249.0 332.0L205.0 332.0L205.0 318.0C205.0 316.89542 205.89543 316.0 207.0 316.0L247.0 316.0C248.10457 316.0 249.0 316.89542 249.0 318.0Z" fill-rule="nonzero"/><path stroke="#000000" stroke-width="2.0" stroke-linecap="butt" stroke-opacity="0.0" clip-path="url(#id_0)" d="M390.0 332.0L346.0 332.0L346.0 327.0C346.0 325.89542 346.89542 325.0 348.0 325.0L388.0 325.0C389.10458 325.0 390.0 325.89542 390.0 327.0Z" fill-rule="nonzero"/><path fill="#ea4335" clip-path="url(#id_0)" d="M390.0 332.0L346.0 332.0L346.0 327.0C346.0 325.89542 346.89542 325.0 348.0 325.0L388.0 325.0C389.10458 325.0 390.0 325.89542 390.0 327.0Z" fill-rule="nonzero"/><path stroke="#000000" stroke-width="2.0" stroke-linecap="butt" stroke-opacity="0.0" clip-path="url(#id_0)" d="M531.0 332.0L487.0 332.0L487.0 291.0C487.0 289.89542 487.89542 289.0 489.0 289.0L529.0 289.0C530.10455 289.0 531.0 289.89542 531.0 291.0Z" fill-rule="nonzero"/><path fill="#ea4335" clip-path="url(#id_0)" d="M531.0 332.0L487.0 332.0L487.0 291.0C487.0 289.89542 487.89542 289.0 489.0 289.0L529.0 289.0C530.10455 289.0 531.0 289.89542 531.0 291.0Z" fill-rule="nonzero"/><path fill="#000000" d="M29.550013 254.0073L21.971888 254.0073L21.971888 256.83542L20.956263 256.83542L20.956263 250.02292L21.971888 250.02292L21.971888 252.86667L29.550013 252.86667L29.550013 254.0073ZM22.175013 249.3198L20.956263 249.3198L20.956263 248.2573L22.175013 248.2573L22.175013 249.3198ZM29.550013 249.3198L23.331263 249.3198L23.331263 248.2573L29.550013 248.2573L29.550013 249.3198ZM29.550013 246.3198L23.331263 246.3198L23.331263 245.3823L24.206263 245.3823Q23.737513 245.08542 23.471888 244.60104Q23.190638 244.11667 23.190638 243.49167Q23.190638 242.80417 23.471888 242.36667Q23.753138 241.91354 24.268763 241.74167Q23.190638 240.99167 23.190638 239.8198Q23.190638 238.8823 23.706263 238.39792Q24.206263 237.89792 25.284388 237.89792L29.550013 237.89792L29.550013 238.9448L25.628138 238.9448Q25.003138 238.9448 24.721888 239.05417Q24.440638 239.14792 24.268763 239.41354Q24.096888 239.67917 24.096888 240.05417Q24.096888 240.71042 24.534388 241.14792Q24.971888 241.5698 25.940638 241.5698L29.550013 241.5698L29.550013 242.6323L25.503138 242.6323Q24.800013 242.6323 24.456263 242.89792Q24.096888 243.14792 24.096888 243.72604Q24.096888 244.17917 24.331263 244.55417Q24.565638 244.92917 25.018763 245.10104Q25.471888 245.27292 26.315638 245.27292L29.550013 245.27292L29.550013 246.3198ZM27.550013 231.0698L27.675013 229.97604Q28.628138 230.22604 29.159388 230.92917Q29.690638 231.6323 29.690638 232.71042Q29.690638 234.0698 28.846888 234.8823Q28.003138 235.67917 26.487513 235.67917Q24.925013 235.67917 24.065638 234.86667Q23.190638 234.05417 23.190638 232.77292Q23.190638 231.52292 24.034388 230.74167Q24.878138 229.9448 26.425013 229.9448Q26.518763 229.9448 26.706263 229.9448L26.706263 234.58542Q27.737513 234.52292 28.284388 234.0073Q28.815638 233.49167 28.815638 232.71042Q28.815638 232.1323 28.518763 231.72604Q28.206263 231.30417 27.550013 231.0698ZM25.846888 234.52292L25.846888 231.05417Q25.050013 231.11667 24.659388 231.4448Q24.050013 231.96042 24.050013 232.7573Q24.050013 233.49167 24.534388 233.99167Q25.018763 234.47604 25.846888 234.52292ZM32.08126 223.30417Q30.971888 224.17917 29.503138 224.78854Q28.018763 225.3823 26.440638 225.3823Q25.050013 225.3823 23.768763 224.9448Q22.284388 224.41354 20.815638 223.30417L20.815638 222.55417Q22.034388 223.2573 22.550013 223.49167Q23.362513 223.85104 24.237513 224.05417Q25.331263 224.30417 26.440638 224.30417Q29.268763 224.30417 32.08126 222.55417L32.08126 223.30417ZM29.550013 221.3198L23.331263 221.3198L23.331263 220.3823L24.206263 220.3823Q23.737513 220.08542 23.471888 219.60104Q23.190638 219.11667 23.190638 218.49167Q23.190638 217.80417 23.471888 217.36667Q23.753138 216.91354 24.268763 216.74167Q23.190638 215.99167 23.190638 214.8198Q23.190638 213.8823 23.706263 213.39792Q24.206263 212.89792 25.284388 212.89792L29.550013 212.89792L29.550013 213.9448L25.628138 213.9448Q25.003138 213.9448 24.721888 214.05417Q24.440638 214.14792 24.268763 214.41354Q24.096888 214.67917 24.096888 215.05417Q24.096888 215.71042 24.534388 216.14792Q24.971888 216.5698 25.940638 216.5698L29.550013 216.5698L29.550013 217.6323L25.503138 217.6323Q24.800013 217.6323 24.456263 217.89792Q24.096888 218.14792 24.096888 218.72604Q24.096888 219.17917 24.331263 219.55417Q24.565638 219.92917 25.018763 220.10104Q25.471888 220.27292 26.315638 220.27292L29.550013 220.27292L29.550013 221.3198ZM27.690638 210.74167L27.534388 209.71042Q28.159388 209.61667 28.487513 209.22604Q28.815638 208.8198 28.815638 208.08542Q28.815638 207.36667 28.534388 207.02292Q28.237513 206.66354 27.831263 206.66354Q27.471888 206.66354 27.268763 206.97604Q27.128138 207.1948 26.909388 208.05417Q26.612513 209.21042 26.409388 209.66354Q26.190638 210.10104 25.815638 210.33542Q25.440638 210.5698 24.971888 210.5698Q24.565638 210.5698 24.206263 210.3823Q23.846888 210.1948 23.612513 209.86667Q23.440638 209.61667 23.315638 209.1948Q23.190638 208.77292 23.190638 208.27292Q23.190638 207.55417 23.409388 207.0073Q23.612513 206.4448 23.971888 206.17917Q24.331263 205.91354 24.925013 205.8198L25.065638 206.85104Q24.596888 206.91354 24.331263 207.2573Q24.050013 207.58542 24.050013 208.21042Q24.050013 208.92917 24.300013 209.24167Q24.534388 209.55417 24.862513 209.55417Q25.065638 209.55417 25.221888 209.42917Q25.393763 209.28854 25.503138 209.02292Q25.565638 208.86667 25.768763 208.08542Q26.081263 206.96042 26.268763 206.52292Q26.456263 206.08542 26.815638 205.83542Q27.175013 205.58542 27.721888 205.58542Q28.253138 205.58542 28.721888 205.89792Q29.175013 206.1948 29.440638 206.77292Q29.690638 207.35104 29.690638 208.08542Q29.690638 209.30417 29.190638 209.9448Q28.675013 210.5698 27.690638 210.74167ZM32.08126 202.6323L32.08126 203.3823Q29.268763 201.6323 26.440638 201.6323Q25.346888 201.6323 24.253138 201.8823Q23.378138 202.08542 22.565638 202.4448Q22.050013 202.67917 20.815638 203.3823L20.815638 202.6323Q22.284388 201.53854 23.768763 201.0073Q25.050013 200.55417 26.440638 200.55417Q28.018763 200.55417 29.503138 201.16354Q30.971888 201.77292 32.08126 202.6323Z" fill-rule="nonzero"/><path fill="#000000" d="M79.05 332.21564Q79.05 330.6844 79.3625 329.7625Q79.675 328.825 80.28438 328.325Q80.90938 327.825 81.84688 327.825Q82.53438 327.825 83.05 328.10626Q83.58125 328.3875 83.925 328.91876Q84.26875 329.4344 84.45625 330.1844Q84.64375 330.9344 84.64375 332.21564Q84.64375 333.73126 84.33125 334.65314Q84.03438 335.575 83.40938 336.09064Q82.8 336.59064 81.84688 336.59064Q80.6125 336.59064 79.89375 335.7Q79.05 334.6375 79.05 332.21564ZM80.12813 332.21564Q80.12813 334.325 80.62813 335.02814Q81.12813 335.73126 81.84688 335.73126Q82.58125 335.73126 83.06563 335.02814Q83.56563 334.325 83.56563 332.21564Q83.56563 330.09064 83.06563 329.40314Q82.58125 328.7 81.83125 328.7Q81.1125 328.7 80.675 329.3094Q80.12813 330.09064 80.12813 332.21564ZM86.64375 336.45L86.64375 335.2469L87.84688 335.2469L87.84688 336.45L86.64375 336.45ZM89.05 332.21564Q89.05 330.6844 89.3625 329.7625Q89.675 328.825 90.28438 328.325Q90.90938 327.825 91.84688 327.825Q92.53438 327.825 93.05 328.10626Q93.58125 328.3875 93.925 328.91876Q94.26875 329.4344 94.45625 330.1844Q94.64375 330.9344 94.64375 332.21564Q94.64375 333.73126 94.33125 334.65314Q94.03438 335.575 93.40938 336.09064Q92.8 336.59064 91.84688 336.59064Q90.6125 336.59064 89.89375 335.7Q89.05 334.6375 89.05 332.21564ZM90.12813 332.21564Q90.12813 334.325 90.62813 335.02814Q91.12813 335.73126 91.84688 335.73126Q92.58125 335.73126 93.06563 335.02814Q93.56563 334.325 93.56563 332.21564Q93.56563 330.09064 93.06563 329.40314Q92.58125 328.7 91.83125 328.7Q91.1125 328.7 90.675 329.3094Q90.12813 330.09064 90.12813 332.21564ZM96.05 332.21564Q96.05 330.6844 96.3625 329.7625Q96.675 328.825 97.28438 328.325Q97.90938 327.825 98.84688 327.825Q99.53438 327.825 100.05 328.10626Q100.58125 328.3875 100.925 328.91876Q101.26875 329.4344 101.45625 330.1844Q101.64375 330.9344 101.64375 332.21564Q101.64375 333.73126 101.33125 334.65314Q101.03438 335.575 100.40938 336.09064Q99.8 336.59064 98.84688 336.59064Q97.6125 336.59064 96.89375 335.7Q96.05 334.6375 96.05 332.21564ZM97.12813 332.21564Q97.12813 334.325 97.62813 335.02814Q98.12813 335.73126 98.84688 335.73126Q99.58125 335.73126 100.06563 335.02814Q100.56563 334.325 100.56563 332.21564Q100.56563 330.09064 100.06563 329.40314Q99.58125 328.7 98.83125 328.7Q98.1125 328.7 97.675 329.3094Q97.12813 330.09064 97.12813 332.21564Z" fill-rule="nonzero"/><path fill="#000000" d="M63.596874 280.2677L63.596874 281.28333L57.909374 281.28333Q57.909374 280.90833 58.034374 280.54895Q58.253124 279.97083 58.721874 279.40833Q59.20625 278.84583 60.1125 278.11145Q61.51875 276.9552 62.003124 276.28333Q62.503124 275.61145 62.503124 275.0177Q62.503124 274.3927 62.05 273.97083Q61.596874 273.53333 60.878124 273.53333Q60.1125 273.53333 59.659374 273.98645Q59.20625 274.43958 59.190624 275.25208L58.1125 275.1427Q58.221874 273.92395 58.940624 273.29895Q59.675 272.65833 60.909374 272.65833Q62.14375 272.65833 62.8625 273.34583Q63.58125 274.03333 63.58125 275.04895Q63.58125 275.56458 63.3625 276.06458Q63.159374 276.54895 62.659374 277.11145Q62.175 277.65833 61.05 278.61145Q60.096874 279.40833 59.815624 279.7052Q59.55 279.98645 59.378124 280.2677L63.596874 280.2677ZM65.05 279.03333L66.15938 278.93958Q66.28438 279.75208 66.72188 280.15833Q67.175 280.56458 67.81563 280.56458Q68.56563 280.56458 69.09688 279.98645Q69.62813 279.40833 69.62813 278.47083Q69.62813 277.56458 69.1125 277.04895Q68.6125 276.5177 67.78438 276.5177Q67.28438 276.5177 66.8625 276.75208Q66.45625 276.98645 66.22188 277.34583L65.2375 277.22083L66.06563 272.81458L70.34688 272.81458L70.34688 273.81458L66.90938 273.81458L66.45625 276.12708Q67.22188 275.5802 68.06563 275.5802Q69.19063 275.5802 69.95625 276.36145Q70.7375 277.1427 70.7375 278.37708Q70.7375 279.53333 70.06563 280.3927Q69.2375 281.42395 67.81563 281.42395Q66.64375 281.42395 65.89375 280.7677Q65.15938 280.11145 65.05 279.03333ZM72.05 277.04895Q72.05 275.5177 72.3625 274.59583Q72.675 273.65833 73.28438 273.15833Q73.90938 272.65833 74.84688 272.65833Q75.53438 272.65833 76.05 272.93958Q76.58125 273.22083 76.925 273.75208Q77.26875 274.2677 77.45625 275.0177Q77.64375 275.7677 77.64375 277.04895Q77.64375 278.56458 77.33125 279.48645Q77.03438 280.40833 76.40938 280.92395Q75.8 281.42395 74.84688 281.42395Q73.6125 281.42395 72.89375 280.53333Q72.05 279.47083 72.05 277.04895ZM73.12813 277.04895Q73.12813 279.15833 73.62813 279.86145Q74.12813 280.56458 74.84688 280.56458Q75.58125 280.56458 76.06563 279.86145Q76.56563 279.15833 76.56563 277.04895Q76.56563 274.92395 76.06563 274.23645Q75.58125 273.53333 74.83125 273.53333Q74.1125 273.53333 73.675 274.1427Q73.12813 274.92395 73.12813 277.04895ZM79.05 277.04895Q79.05 275.5177 79.3625 274.59583Q79.675 273.65833 80.28438 273.15833Q80.90938 272.65833 81.84688 272.65833Q82.53438 272.65833 83.05 272.93958Q83.58125 273.22083 83.925 273.75208Q84.26875 274.2677 84.45625 275.0177Q84.64375 275.7677 84.64375 277.04895Q84.64375 278.56458 84.33125 279.48645Q84.03438 280.40833 83.40938 280.92395Q82.8 281.42395 81.84688 281.42395Q80.6125 281.42395 79.89375 280.53333Q79.05 279.47083 79.05 277.04895ZM80.12813 277.04895Q80.12813 279.15833 80.62813 279.86145Q81.12813 280.56458 81.84688 280.56458Q82.58125 280.56458 83.06563 279.86145Q83.56563 279.15833 83.56563 277.04895Q83.56563 274.92395 83.06563 274.23645Q82.58125 273.53333 81.83125 273.53333Q81.1125 273.53333 80.675 274.1427Q80.12813 274.92395 80.12813 277.04895ZM86.64375 281.28333L86.64375 280.0802L87.84688 280.0802L87.84688 281.28333L86.64375 281.28333ZM89.05 277.04895Q89.05 275.5177 89.3625 274.59583Q89.675 273.65833 90.28438 273.15833Q90.90938 272.65833 91.84688 272.65833Q92.53438 272.65833 93.05 272.93958Q93.58125 273.22083 93.925 273.75208Q94.26875 274.2677 94.45625 275.0177Q94.64375 275.7677 94.64375 277.04895Q94.64375 278.56458 94.33125 279.48645Q94.03438 280.40833 93.40938 280.92395Q92.8 281.42395 91.84688 281.42395Q90.6125 281.42395 89.89375 280.53333Q89.05 279.47083 89.05 277.04895ZM90.12813 277.04895Q90.12813 279.15833 90.62813 279.86145Q91.12813 280.56458 91.84688 280.56458Q92.58125 280.56458 93.06563 279.86145Q93.56563 279.15833 93.56563 277.04895Q93.56563 274.92395 93.06563 274.23645Q92.58125 273.53333 91.83125 273.53333Q91.1125 273.53333 90.675 274.1427Q90.12813 274.92395 90.12813 277.04895ZM96.05 277.04895Q96.05 275.5177 96.3625 274.59583Q96.675 273.65833 97.28438 273.15833Q97.90938 272.65833 98.84688 272.65833Q99.53438 272.65833 100.05 272.93958Q100.58125 273.22083 100.925 273.75208Q101.26875 274.2677 101.45625 275.0177Q101.64375 275.7677 101.64375 277.04895Q101.64375 278.56458 101.33125 279.48645Q101.03438 280.40833 100.40938 280.92395Q99.8 281.42395 98.84688 281.42395Q97.6125 281.42395 96.89375 280.53333Q96.05 279.47083 96.05 277.04895ZM97.12813 277.04895Q97.12813 279.15833 97.62813 279.86145Q98.12813 280.56458 98.84688 280.56458Q99.58125 280.56458 100.06563 279.86145Q100.56563 279.15833 100.56563 277.04895Q100.56563 274.92395 100.06563 274.23645Q99.58125 273.53333 98.83125 273.53333Q98.1125 273.53333 97.675 274.1427Q97.12813 274.92395 97.12813 277.04895Z" fill-rule="nonzero"/><path fill="#000000" d="M58.05 223.86667L59.159374 223.77292Q59.284374 224.58542 59.721874 224.99167Q60.175 225.39792 60.815624 225.39792Q61.565624 225.39792 62.096874 224.8198Q62.628124 224.24167 62.628124 223.30417Q62.628124 222.39792 62.1125 221.8823Q61.6125 221.35104 60.784374 221.35104Q60.284374 221.35104 59.8625 221.58542Q59.45625 221.8198 59.221874 222.17917L58.2375 222.05417L59.065624 217.64792L63.346874 217.64792L63.346874 218.64792L59.909374 218.64792L59.45625 220.96042Q60.221874 220.41354 61.065624 220.41354Q62.190624 220.41354 62.95625 221.1948Q63.7375 221.97604 63.7375 223.21042Q63.7375 224.36667 63.065624 225.22604Q62.2375 226.2573 60.815624 226.2573Q59.64375 226.2573 58.89375 225.60104Q58.159374 224.9448 58.05 223.86667ZM65.05 221.8823Q65.05 220.35104 65.3625 219.42917Q65.675 218.49167 66.28438 217.99167Q66.90938 217.49167 67.84688 217.49167Q68.53438 217.49167 69.05 217.77292Q69.58125 218.05417 69.925 218.58542Q70.26875 219.10104 70.45625 219.85104Q70.64375 220.60104 70.64375 221.8823Q70.64375 223.39792 70.33125 224.3198Q70.03438 225.24167 69.40938 225.7573Q68.8 226.2573 67.84688 226.2573Q66.6125 226.2573 65.89375 225.36667Q65.05 224.30417 65.05 221.8823ZM66.12813 221.8823Q66.12813 223.99167 66.62813 224.6948Q67.12813 225.39792 67.84688 225.39792Q68.58125 225.39792 69.06563 224.6948Q69.56563 223.99167 69.56563 221.8823Q69.56563 219.7573 69.06563 219.0698Q68.58125 218.36667 67.83125 218.36667Q67.1125 218.36667 66.675 218.97604Q66.12813 219.7573 66.12813 221.8823ZM72.05 221.8823Q72.05 220.35104 72.3625 219.42917Q72.675 218.49167 73.28438 217.99167Q73.90938 217.49167 74.84688 217.49167Q75.53438 217.49167 76.05 217.77292Q76.58125 218.05417 76.925 218.58542Q77.26875 219.10104 77.45625 219.85104Q77.64375 220.60104 77.64375 221.8823Q77.64375 223.39792 77.33125 224.3198Q77.03438 225.24167 76.40938 225.7573Q75.8 226.2573 74.84688 226.2573Q73.6125 226.2573 72.89375 225.36667Q72.05 224.30417 72.05 221.8823ZM73.12813 221.8823Q73.12813 223.99167 73.62813 224.6948Q74.12813 225.39792 74.84688 225.39792Q75.58125 225.39792 76.06563 224.6948Q76.56563 223.99167 76.56563 221.8823Q76.56563 219.7573 76.06563 219.0698Q75.58125 218.36667 74.83125 218.36667Q74.1125 218.36667 73.675 218.97604Q73.12813 219.7573 73.12813 221.8823ZM79.05 221.8823Q79.05 220.35104 79.3625 219.42917Q79.675 218.49167 80.28438 217.99167Q80.90938 217.49167 81.84688 217.49167Q82.53438 217.49167 83.05 217.77292Q83.58125 218.05417 83.925 218.58542Q84.26875 219.10104 84.45625 219.85104Q84.64375 220.60104 84.64375 221.8823Q84.64375 223.39792 84.33125 224.3198Q84.03438 225.24167 83.40938 225.7573Q82.8 226.2573 81.84688 226.2573Q80.6125 226.2573 79.89375 225.36667Q79.05 224.30417 79.05 221.8823ZM80.12813 221.8823Q80.12813 223.99167 80.62813 224.6948Q81.12813 225.39792 81.84688 225.39792Q82.58125 225.39792 83.06563 224.6948Q83.56563 223.99167 83.56563 221.8823Q83.56563 219.7573 83.06563 219.0698Q82.58125 218.36667 81.83125 218.36667Q81.1125 218.36667 80.675 218.97604Q80.12813 219.7573 80.12813 221.8823ZM86.64375 226.11667L86.64375 224.91354L87.84688 224.91354L87.84688 226.11667L86.64375 226.11667ZM89.05 221.8823Q89.05 220.35104 89.3625 219.42917Q89.675 218.49167 90.28438 217.99167Q90.90938 217.49167 91.84688 217.49167Q92.53438 217.49167 93.05 217.77292Q93.58125 218.05417 93.925 218.58542Q94.26875 219.10104 94.45625 219.85104Q94.64375 220.60104 94.64375 221.8823Q94.64375 223.39792 94.33125 224.3198Q94.03438 225.24167 93.40938 225.7573Q92.8 226.2573 91.84688 226.2573Q90.6125 226.2573 89.89375 225.36667Q89.05 224.30417 89.05 221.8823ZM90.12813 221.8823Q90.12813 223.99167 90.62813 224.6948Q91.12813 225.39792 91.84688 225.39792Q92.58125 225.39792 93.06563 224.6948Q93.56563 223.99167 93.56563 221.8823Q93.56563 219.7573 93.06563 219.0698Q92.58125 218.36667 91.83125 218.36667Q91.1125 218.36667 90.675 218.97604Q90.12813 219.7573 90.12813 221.8823ZM96.05 221.8823Q96.05 220.35104 96.3625 219.42917Q96.675 218.49167 97.28438 217.99167Q97.90938 217.49167 98.84688 217.49167Q99.53438 217.49167 100.05 217.77292Q100.58125 218.05417 100.925 218.58542Q101.26875 219.10104 101.45625 219.85104Q101.64375 220.60104 101.64375 221.8823Q101.64375 223.39792 101.33125 224.3198Q101.03438 225.24167 100.40938 225.7573Q99.8 226.2573 98.84688 226.2573Q97.6125 226.2573 96.89375 225.36667Q96.05 224.30417 96.05 221.8823ZM97.12813 221.8823Q97.12813 223.99167 97.62813 224.6948Q98.12813 225.39792 98.84688 225.39792Q99.58125 225.39792 100.06563 224.6948Q100.56563 223.99167 100.56563 221.8823Q100.56563 219.7573 100.06563 219.0698Q99.58125 218.36667 98.83125 218.36667Q98.1125 218.36667 97.675 218.97604Q97.12813 219.7573 97.12813 221.8823Z" fill-rule="nonzero"/><path fill="#000000" d="M58.1125 163.48125L58.1125 162.46562L63.675 162.46562L63.675 163.29375Q62.8625 164.16875 62.05 165.62187Q61.253124 167.05937 60.815624 168.59062Q60.4875 169.66875 60.409374 170.95L59.315624 170.95Q59.33125 169.93437 59.70625 168.49687Q60.096874 167.05937 60.8 165.73125Q61.51875 164.40312 62.33125 163.48125L58.1125 163.48125ZM65.05 168.7L66.15938 168.60625Q66.28438 169.41875 66.72188 169.825Q67.175 170.23125 67.81563 170.23125Q68.56563 170.23125 69.09688 169.65312Q69.62813 169.075 69.62813 168.1375Q69.62813 167.23125 69.1125 166.71562Q68.6125 166.18437 67.78438 166.18437Q67.28438 166.18437 66.8625 166.41875Q66.45625 166.65312 66.22188 167.0125L65.2375 166.8875L66.06563 162.48125L70.34688 162.48125L70.34688 163.48125L66.90938 163.48125L66.45625 165.79375Q67.22188 165.24687 68.06563 165.24687Q69.19063 165.24687 69.95625 166.02812Q70.7375 166.80937 70.7375 168.04375Q70.7375 169.2 70.06563 170.05937Q69.2375 171.09062 67.81563 171.09062Q66.64375 171.09062 65.89375 170.43437Q65.15938 169.77812 65.05 168.7ZM72.05 166.71562Q72.05 165.18437 72.3625 164.2625Q72.675 163.325 73.28438 162.825Q73.90938 162.325 74.84688 162.325Q75.53438 162.325 76.05 162.60625Q76.58125 162.8875 76.925 163.41875Q77.26875 163.93437 77.45625 164.68437Q77.64375 165.43437 77.64375 166.71562Q77.64375 168.23125 77.33125 169.15312Q77.03438 170.075 76.40938 170.59062Q75.8 171.09062 74.84688 171.09062Q73.6125 171.09062 72.89375 170.2Q72.05 169.1375 72.05 166.71562ZM73.12813 166.71562Q73.12813 168.825 73.62813 169.52812Q74.12813 170.23125 74.84688 170.23125Q75.58125 170.23125 76.06563 169.52812Q76.56563 168.825 76.56563 166.71562Q76.56563 164.59062 76.06563 163.90312Q75.58125 163.2 74.83125 163.2Q74.1125 163.2 73.675 163.80937Q73.12813 164.59062 73.12813 166.71562ZM79.05 166.71562Q79.05 165.18437 79.3625 164.2625Q79.675 163.325 80.28438 162.825Q80.90938 162.325 81.84688 162.325Q82.53438 162.325 83.05 162.60625Q83.58125 162.8875 83.925 163.41875Q84.26875 163.93437 84.45625 164.68437Q84.64375 165.43437 84.64375 166.71562Q84.64375 168.23125 84.33125 169.15312Q84.03438 170.075 83.40938 170.59062Q82.8 171.09062 81.84688 171.09062Q80.6125 171.09062 79.89375 170.2Q79.05 169.1375 79.05 166.71562ZM80.12813 166.71562Q80.12813 168.825 80.62813 169.52812Q81.12813 170.23125 81.84688 170.23125Q82.58125 170.23125 83.06563 169.52812Q83.56563 168.825 83.56563 166.71562Q83.56563 164.59062 83.06563 163.90312Q82.58125 163.2 81.83125 163.2Q81.1125 163.2 80.675 163.80937Q80.12813 164.59062 80.12813 166.71562ZM86.64375 170.95L86.64375 169.74687L87.84688 169.74687L87.84688 170.95L86.64375 170.95ZM89.05 166.71562Q89.05 165.18437 89.3625 164.2625Q89.675 163.325 90.28438 162.825Q90.90938 162.325 91.84688 162.325Q92.53438 162.325 93.05 162.60625Q93.58125 162.8875 93.925 163.41875Q94.26875 163.93437 94.45625 164.68437Q94.64375 165.43437 94.64375 166.71562Q94.64375 168.23125 94.33125 169.15312Q94.03438 170.075 93.40938 170.59062Q92.8 171.09062 91.84688 171.09062Q90.6125 171.09062 89.89375 170.2Q89.05 169.1375 89.05 166.71562ZM90.12813 166.71562Q90.12813 168.825 90.62813 169.52812Q91.12813 170.23125 91.84688 170.23125Q92.58125 170.23125 93.06563 169.52812Q93.56563 168.825 93.56563 166.71562Q93.56563 164.59062 93.06563 163.90312Q92.58125 163.2 91.83125 163.2Q91.1125 163.2 90.675 163.80937Q90.12813 164.59062 90.12813 166.71562ZM96.05 166.71562Q96.05 165.18437 96.3625 164.2625Q96.675 163.325 97.28438 162.825Q97.90938 162.325 98.84688 162.325Q99.53438 162.325 100.05 162.60625Q100.58125 162.8875 100.925 163.41875Q101.26875 163.93437 101.45625 164.68437Q101.64375 165.43437 101.64375 166.71562Q101.64375 168.23125 101.33125 169.15312Q101.03438 170.075 100.40938 170.59062Q99.8 171.09062 98.84688 171.09062Q97.6125 171.09062 96.89375 170.2Q96.05 169.1375 96.05 166.71562ZM97.12813 166.71562Q97.12813 168.825 97.62813 169.52812Q98.12813 170.23125 98.84688 170.23125Q99.58125 170.23125 100.06563 169.52812Q100.56563 168.825 100.56563 166.71562Q100.56563 164.59062 100.06563 163.90312Q99.58125 163.2 98.83125 163.2Q98.1125 163.2 97.675 163.80937Q97.12813 164.59062 97.12813 166.71562Z" fill-rule="nonzero"/><path fill="#000000" d="M55.01875 115.78333L53.971874 115.78333L53.971874 109.06458Q53.58125 109.42396 52.95625 109.79896Q52.346874 110.15833 51.8625 110.33021L51.8625 109.31458Q52.7375 108.89271 53.39375 108.31458Q54.065624 107.72083 54.346874 107.15833L55.01875 107.15833L55.01875 115.78333ZM58.05 111.54896Q58.05 110.01771 58.3625 109.09583Q58.675 108.15833 59.284374 107.65833Q59.909374 107.15833 60.846874 107.15833Q61.534374 107.15833 62.05 107.43958Q62.58125 107.72083 62.925 108.25208Q63.26875 108.76771 63.45625 109.51771Q63.64375 110.26771 63.64375 111.54896Q63.64375 113.06458 63.33125 113.98646Q63.034374 114.90833 62.409374 115.42396Q61.8 115.92396 60.846874 115.92396Q59.6125 115.92396 58.89375 115.03333Q58.05 113.97083 58.05 111.54896ZM59.128124 111.54896Q59.128124 113.65833 59.628124 114.36146Q60.128124 115.06458 60.846874 115.06458Q61.58125 115.06458 62.065624 114.36146Q62.565624 113.65833 62.565624 111.54896Q62.565624 109.42396 62.065624 108.73646Q61.58125 108.03333 60.83125 108.03333Q60.1125 108.03333 59.675 108.64271Q59.128124 109.42396 59.128124 111.54896ZM65.05 111.54896Q65.05 110.01771 65.3625 109.09583Q65.675 108.15833 66.28438 107.65833Q66.90938 107.15833 67.84688 107.15833Q68.53438 107.15833 69.05 107.43958Q69.58125 107.72083 69.925 108.25208Q70.26875 108.76771 70.45625 109.51771Q70.64375 110.26771 70.64375 111.54896Q70.64375 113.06458 70.33125 113.98646Q70.03438 114.90833 69.40938 115.42396Q68.8 115.92396 67.84688 115.92396Q66.6125 115.92396 65.89375 115.03333Q65.05 113.97083 65.05 111.54896ZM66.12813 111.54896Q66.12813 113.65833 66.62813 114.36146Q67.12813 115.06458 67.84688 115.06458Q68.58125 115.06458 69.06563 114.36146Q69.56563 113.65833 69.56563 111.54896Q69.56563 109.42396 69.06563 108.73646Q68.58125 108.03333 67.83125 108.03333Q67.1125 108.03333 66.675 108.64271Q66.12813 109.42396 66.12813 111.54896ZM72.05 111.54896Q72.05 110.01771 72.3625 109.09583Q72.675 108.15833 73.28438 107.65833Q73.90938 107.15833 74.84688 107.15833Q75.53438 107.15833 76.05 107.43958Q76.58125 107.72083 76.925 108.25208Q77.26875 108.76771 77.45625 109.51771Q77.64375 110.26771 77.64375 111.54896Q77.64375 113.06458 77.33125 113.98646Q77.03438 114.90833 76.40938 115.42396Q75.8 115.92396 74.84688 115.92396Q73.6125 115.92396 72.89375 115.03333Q72.05 113.97083 72.05 111.54896ZM73.12813 111.54896Q73.12813 113.65833 73.62813 114.36146Q74.12813 115.06458 74.84688 115.06458Q75.58125 115.06458 76.06563 114.36146Q76.56563 113.65833 76.56563 111.54896Q76.56563 109.42396 76.06563 108.73646Q75.58125 108.03333 74.83125 108.03333Q74.1125 108.03333 73.675 108.64271Q73.12813 109.42396 73.12813 111.54896ZM79.05 111.54896Q79.05 110.01771 79.3625 109.09583Q79.675 108.15833 80.28438 107.65833Q80.90938 107.15833 81.84688 107.15833Q82.53438 107.15833 83.05 107.43958Q83.58125 107.72083 83.925 108.25208Q84.26875 108.76771 84.45625 109.51771Q84.64375 110.26771 84.64375 111.54896Q84.64375 113.06458 84.33125 113.98646Q84.03438 114.90833 83.40938 115.42396Q82.8 115.92396 81.84688 115.92396Q80.6125 115.92396 79.89375 115.03333Q79.05 113.97083 79.05 111.54896ZM80.12813 111.54896Q80.12813 113.65833 80.62813 114.36146Q81.12813 115.06458 81.84688 115.06458Q82.58125 115.06458 83.06563 114.36146Q83.56563 113.65833 83.56563 111.54896Q83.56563 109.42396 83.06563 108.73646Q82.58125 108.03333 81.83125 108.03333Q81.1125 108.03333 80.675 108.64271Q80.12813 109.42396 80.12813 111.54896ZM86.64375 115.78333L86.64375 114.58021L87.84688 114.58021L87.84688 115.78333L86.64375 115.78333ZM89.05 111.54896Q89.05 110.01771 89.3625 109.09583Q89.675 108.15833 90.28438 107.65833Q90.90938 107.15833 91.84688 107.15833Q92.53438 107.15833 93.05 107.43958Q93.58125 107.72083 93.925 108.25208Q94.26875 108.76771 94.45625 109.51771Q94.64375 110.26771 94.64375 111.54896Q94.64375 113.06458 94.33125 113.98646Q94.03438 114.90833 93.40938 115.42396Q92.8 115.92396 91.84688 115.92396Q90.6125 115.92396 89.89375 115.03333Q89.05 113.97083 89.05 111.54896ZM90.12813 111.54896Q90.12813 113.65833 90.62813 114.36146Q91.12813 115.06458 91.84688 115.06458Q92.58125 115.06458 93.06563 114.36146Q93.56563 113.65833 93.56563 111.54896Q93.56563 109.42396 93.06563 108.73646Q92.58125 108.03333 91.83125 108.03333Q91.1125 108.03333 90.675 108.64271Q90.12813 109.42396 90.12813 111.54896ZM96.05 111.54896Q96.05 110.01771 96.3625 109.09583Q96.675 108.15833 97.28438 107.65833Q97.90938 107.15833 98.84688 107.15833Q99.53438 107.15833 100.05 107.43958Q100.58125 107.72083 100.925 108.25208Q101.26875 108.76771 101.45625 109.51771Q101.64375 110.26771 101.64375 111.54896Q101.64375 113.06458 101.33125 113.98646Q101.03438 114.90833 100.40938 115.42396Q99.8 115.92396 98.84688 115.92396Q97.6125 115.92396 96.89375 115.03333Q96.05 113.97083 96.05 111.54896ZM97.12813 111.54896Q97.12813 113.65833 97.62813 114.36146Q98.12813 115.06458 98.84688 115.06458Q99.58125 115.06458 100.06563 114.36146Q100.56563 113.65833 100.56563 111.54896Q100.56563 109.42396 100.06563 108.73646Q99.58125 108.03333 98.83125 108.03333Q98.1125 108.03333 97.675 108.64271Q97.12813 109.42396 97.12813 111.54896Z" fill-rule="nonzero"/><path fill="#000000" d="M199.19519 348.6844Q198.60144 349.1844 198.05457 349.3875Q197.52332 349.59064 196.89832 349.59064Q195.86707 349.59064 195.32019 349.09064Q194.77332 348.59064 194.77332 347.8094Q194.77332 347.35626 194.97644 346.98126Q195.17957 346.59064 195.52332 346.3719Q195.86707 346.1375 196.28894 346.02814Q196.58582 345.9344 197.22644 345.85626Q198.49207 345.71564 199.10144 345.4969Q199.10144 345.27814 199.10144 345.23126Q199.10144 344.575 198.80457 344.3094Q198.39832 343.96564 197.60144 343.96564Q196.86707 343.96564 196.50769 344.23126Q196.14832 344.48126 195.97644 345.1375L194.94519 344.9969Q195.08582 344.34064 195.41394 343.9344Q195.74207 343.52814 196.35144 343.3094Q196.96082 343.09064 197.75769 343.09064Q198.55457 343.09064 199.05457 343.27814Q199.55457 343.46564 199.78894 343.7469Q200.02332 344.02814 200.11707 344.46564Q200.16394 344.73126 200.16394 345.4344L200.16394 346.84064Q200.16394 348.3094 200.22644 348.7Q200.30457 349.09064 200.50769 349.45L199.39832 349.45Q199.24207 349.1219 199.19519 348.6844ZM199.10144 346.325Q198.52332 346.5594 197.38269 346.73126Q196.72644 346.825 196.46082 346.95Q196.19519 347.0594 196.03894 347.27814Q195.89832 347.4969 195.89832 347.77814Q195.89832 348.2 196.21082 348.48126Q196.53894 348.7625 197.14832 348.7625Q197.75769 348.7625 198.22644 348.4969Q198.71082 348.23126 198.92957 347.7625Q199.10144 347.40314 199.10144 346.71564L199.10144 346.325ZM203.85144 349.45L201.49207 343.23126L202.60144 343.23126L203.94519 346.95Q204.14832 347.5594 204.33582 348.2Q204.47644 347.71564 204.72644 347.02814L206.11707 343.23126L207.19519 343.23126L204.83582 349.45L203.85144 349.45ZM206.92957 349.96564L207.96082 350.1219Q208.02332 350.59064 208.32019 350.8094Q208.71082 351.10626 209.38269 351.10626Q210.11707 351.10626 210.50769 350.8094Q210.91394 350.5125 211.05457 349.9969Q211.14832 349.66876 211.13269 348.6375Q210.44519 349.45 209.41394 349.45Q208.13269 349.45 207.42957 348.52814Q206.72644 347.59064 206.72644 346.3094Q206.72644 345.41876 207.03894 344.66876Q207.36707 343.90314 207.97644 343.4969Q208.58582 343.09064 209.41394 343.09064Q210.52332 343.09064 211.24207 343.98126L211.24207 343.23126L212.21082 343.23126L212.21082 348.60626Q212.21082 350.0594 211.91394 350.66876Q211.61707 351.27814 210.97644 351.6219Q210.33582 351.98126 209.39832 351.98126Q208.28894 351.98126 207.60144 351.48126Q206.91394 350.98126 206.92957 349.96564ZM207.80457 346.23126Q207.80457 347.45 208.28894 348.0125Q208.77332 348.575 209.50769 348.575Q210.24207 348.575 210.72644 348.0125Q211.22644 347.45 211.22644 346.2625Q211.22644 345.1219 210.71082 344.54376Q210.21082 343.96564 209.49207 343.96564Q208.78894 343.96564 208.28894 344.54376Q207.80457 345.10626 207.80457 346.23126Z" fill-rule="nonzero"/><path fill="#000000" d="M336.875 347.59064L337.90625 347.4344Q338.0 348.0594 338.39062 348.3875Q338.79688 348.71564 339.53125 348.71564Q340.25 348.71564 340.59375 348.4344Q340.95312 348.1375 340.95312 347.73126Q340.95312 347.3719 340.64062 347.16876Q340.42188 347.02814 339.5625 346.8094Q338.40625 346.5125 337.95312 346.3094Q337.51562 346.09064 337.28125 345.71564Q337.04688 345.34064 337.04688 344.8719Q337.04688 344.46564 337.23438 344.10626Q337.42188 343.7469 337.75 343.5125Q338.0 343.34064 338.42188 343.21564Q338.84375 343.09064 339.34375 343.09064Q340.0625 343.09064 340.60938 343.3094Q341.17188 343.5125 341.4375 343.8719Q341.70312 344.23126 341.79688 344.825L340.76562 344.96564Q340.70312 344.4969 340.35938 344.23126Q340.03125 343.95 339.40625 343.95Q338.6875 343.95 338.375 344.2Q338.0625 344.4344 338.0625 344.7625Q338.0625 344.96564 338.1875 345.1219Q338.32812 345.29376 338.59375 345.40314Q338.75 345.46564 339.53125 345.66876Q340.65625 345.98126 341.09375 346.16876Q341.53125 346.35626 341.78125 346.71564Q342.03125 347.075 342.03125 347.6219Q342.03125 348.15314 341.71875 348.6219Q341.42188 349.075 340.84375 349.34064Q340.26562 349.59064 339.53125 349.59064Q338.3125 349.59064 337.67188 349.09064Q337.04688 348.575 336.875 347.59064ZM346.59375 348.5125L346.75 349.4344Q346.29688 349.52814 345.95312 349.52814Q345.375 349.52814 345.0625 349.35626Q344.75 349.16876 344.60938 348.8719Q344.48438 348.575 344.48438 347.6219L344.48438 344.04376L343.71875 344.04376L343.71875 343.23126L344.48438 343.23126L344.48438 341.6844L345.53125 341.0594L345.53125 343.23126L346.59375 343.23126L346.59375 344.04376L345.53125 344.04376L345.53125 347.6844Q345.53125 348.1375 345.57812 348.2625Q345.64062 348.3875 345.76562 348.46564Q345.89062 348.54376 346.125 348.54376Q346.3125 348.54376 346.59375 348.5125ZM351.32812 349.45L351.32812 348.66876Q350.73438 349.59064 349.59375 349.59064Q348.84375 349.59064 348.21875 349.1844Q347.59375 348.7625 347.25 348.02814Q346.90625 347.29376 346.90625 346.34064Q346.90625 345.41876 347.21875 344.65314Q347.53125 343.8875 348.15625 343.4969Q348.78125 343.09064 349.54688 343.09064Q350.10938 343.09064 350.54688 343.325Q350.98438 343.5594 351.26562 343.9344L351.26562 340.85626L352.3125 340.85626L352.3125 349.45L351.32812 349.45ZM348.0 346.34064Q348.0 347.54376 348.5 348.1375Q349.0 348.71564 349.6875 348.71564Q350.375 348.71564 350.85938 348.15314Q351.34375 347.59064 351.34375 346.4344Q351.34375 345.15314 350.84375 344.5594Q350.35938 343.96564 349.64062 343.96564Q348.9375 343.96564 348.46875 344.54376Q348.0 345.10626 348.0 346.34064Z" fill-rule="nonzero"/><path fill="#000000" d="M470.63293 349.45L469.58606 349.45L469.58606 342.73126Q469.19543 343.09064 468.57043 343.46564Q467.96106 343.825 467.47668 343.9969L467.47668 342.98126Q468.35168 342.5594 469.00793 341.98126Q469.6798 341.3875 469.96106 340.825L470.63293 340.825L470.63293 349.45ZM473.8673 342.91876Q473.8673 341.9969 474.32043 341.35626Q474.78918 340.71564 475.66418 340.71564Q476.47668 340.71564 477.00793 341.29376Q477.53918 341.8719 477.53918 342.98126Q477.53918 344.075 476.9923 344.66876Q476.46106 345.2469 475.6798 345.2469Q474.89856 345.2469 474.38293 344.66876Q473.8673 344.09064 473.8673 342.91876ZM475.69543 341.4344Q475.3048 341.4344 475.03918 341.77814Q474.78918 342.1219 474.78918 343.02814Q474.78918 343.85626 475.03918 344.2Q475.3048 344.52814 475.69543 344.52814Q476.10168 344.52814 476.35168 344.1844Q476.6173 343.84064 476.6173 342.95Q476.6173 342.10626 476.35168 341.77814Q476.08606 341.4344 475.69543 341.4344ZM475.69543 349.7625L480.39856 340.71564L481.25793 340.71564L476.57043 349.7625L475.69543 349.7625ZM479.41418 347.4344Q479.41418 346.5125 479.8673 345.8719Q480.33606 345.23126 481.22668 345.23126Q482.03918 345.23126 482.57043 345.8094Q483.10168 346.3719 483.10168 347.4969Q483.10168 348.59064 482.5548 349.1844Q482.02356 349.7625 481.22668 349.7625Q480.46106 349.7625 479.9298 349.1844Q479.41418 348.60626 479.41418 347.4344ZM481.25793 345.95Q480.85168 345.95 480.58606 346.29376Q480.33606 346.6375 480.33606 347.54376Q480.33606 348.35626 480.60168 348.7Q480.8673 349.04376 481.25793 349.04376Q481.64856 349.04376 481.91418 348.7Q482.1798 348.35626 482.1798 347.45Q482.1798 346.6219 481.91418 346.29376Q481.64856 345.95 481.25793 345.95ZM487.9298 349.45L487.9298 340.85626L488.9923 340.85626L488.9923 349.45L487.9298 349.45ZM490.57043 346.34064Q490.57043 344.60626 491.52356 343.77814Q492.32043 343.09064 493.47668 343.09064Q494.75793 343.09064 495.57043 343.9344Q496.39856 344.7625 496.39856 346.2469Q496.39856 347.45 496.03918 348.1375Q495.6798 348.825 494.97668 349.21564Q494.28918 349.59064 493.47668 349.59064Q492.1798 349.59064 491.3673 348.7625Q490.57043 347.91876 490.57043 346.34064ZM491.64856 346.34064Q491.64856 347.52814 492.16418 348.1219Q492.69543 348.71564 493.47668 348.71564Q494.27356 348.71564 494.78918 348.1219Q495.3048 347.52814 495.3048 346.3094Q495.3048 345.15314 494.77356 344.5594Q494.25793 343.96564 493.47668 343.96564Q492.69543 343.96564 492.16418 344.5594Q491.64856 345.1375 491.64856 346.34064ZM499.10168 349.45L497.19543 343.23126L498.28918 343.23126L499.27356 346.825L499.64856 348.15314Q499.6798 348.0594 499.97668 346.8719L500.96106 343.23126L502.03918 343.23126L502.97668 346.84064L503.28918 348.02814L503.64856 346.825L504.71106 343.23126L505.7423 343.23126L503.78918 349.45L502.69543 349.45L501.71106 345.71564L501.46106 344.66876L500.21106 349.45L499.10168 349.45Z" fill-rule="nonzero"/><path fill="#4285f4" d="M199.5 80.416664C199.5 79.86438 199.94771 79.416664 200.5 79.416664L210.5 79.416664C211.05229 79.416664 211.5 79.86438 211.5 80.416664L211.5 90.416664C211.5 90.96895 211.05229 91.416664 210.5 91.416664L200.5 91.416664C199.94771 91.416664 199.5 90.96895 199.5 90.416664Z" fill-rule="nonzero"/><path fill="#1a1a1a" d="M221.4375 89.416664L219.53125 83.197914L220.625 83.197914L221.60938 86.791664L221.98438 88.11979Q222.01562 88.02604 222.3125 86.83854L223.29688 83.197914L224.375 83.197914L225.3125 86.80729L225.625 87.99479L225.98438 86.791664L227.04688 83.197914L228.07812 83.197914L226.125 89.416664L225.03125 89.416664L224.04688 85.68229L223.79688 84.635414L222.54688 89.416664L221.4375 89.416664ZM229.29688 82.041664L229.29688 80.822914L230.35938 80.822914L230.35938 82.041664L229.29688 82.041664ZM229.29688 89.416664L229.29688 83.197914L230.35938 83.197914L230.35938 89.416664L229.29688 89.416664ZM234.59375 88.479164L234.75 89.40104Q234.29688 89.49479 233.95312 89.49479Q233.375 89.49479 233.0625 89.322914Q232.75 89.135414 232.60938 88.83854Q232.48438 88.541664 232.48438 87.58854L232.48438 84.010414L231.71875 84.010414L231.71875 83.197914L232.48438 83.197914L232.48438 81.65104L233.53125 81.02604L233.53125 83.197914L234.59375 83.197914L234.59375 84.010414L233.53125 84.010414L233.53125 87.65104Q233.53125 88.104164 233.57812 88.229164Q233.64062 88.354164 233.76562 88.43229Q233.89062 88.510414 234.125 88.510414Q234.3125 88.510414 234.59375 88.479164ZM235.29688 89.416664L235.29688 80.822914L236.34375 80.822914L236.34375 83.90104Q237.07812 83.05729 238.20312 83.05729Q238.90625 83.05729 239.40625 83.33854Q239.92188 83.604164 240.14062 84.08854Q240.35938 84.55729 240.35938 85.479164L240.35938 89.416664L239.3125 89.416664L239.3125 85.479164Q239.3125 84.68229 238.96875 84.322914Q238.625 83.96354 238.0 83.96354Q237.53125 83.96354 237.10938 84.21354Q236.70312 84.447914 236.51562 84.86979Q236.34375 85.27604 236.34375 86.010414L236.34375 89.416664L235.29688 89.416664ZM241.90625 86.30729Q241.90625 84.572914 242.85938 83.74479Q243.65625 83.05729 244.8125 83.05729Q246.09375 83.05729 246.90625 83.90104Q247.73438 84.729164 247.73438 86.21354Q247.73438 87.416664 247.375 88.104164Q247.01562 88.791664 246.3125 89.18229Q245.625 89.55729 244.8125 89.55729Q243.51562 89.55729 242.70312 88.729164Q241.90625 87.885414 241.90625 86.30729ZM242.98438 86.30729Q242.98438 87.49479 243.5 88.08854Q244.03125 88.68229 244.8125 88.68229Q245.60938 88.68229 246.125 88.08854Q246.64062 87.49479 246.64062 86.27604Q246.64062 85.11979 246.10938 84.52604Q245.59375 83.93229 244.8125 83.93229Q244.03125 83.93229 243.5 84.52604Q242.98438 85.104164 242.98438 86.30729ZM253.375 89.416664L253.375 88.49479Q252.64062 89.55729 251.39062 89.55729Q250.84375 89.55729 250.35938 89.354164Q249.89062 89.135414 249.65625 88.822914Q249.42188 88.49479 249.32812 88.02604Q249.26562 87.729164 249.26562 87.041664L249.26562 83.197914L250.32812 83.197914L250.32812 86.65104Q250.32812 87.46354 250.39062 87.760414Q250.48438 88.166664 250.79688 88.416664Q251.125 88.65104 251.60938 88.65104Q252.07812 88.65104 252.48438 88.416664Q252.90625 88.166664 253.07812 87.74479Q253.26562 87.322914 253.26562 86.52604L253.26562 83.197914L254.3125 83.197914L254.3125 89.416664L253.375 89.416664ZM258.59375 88.479164L258.75 89.40104Q258.29688 89.49479 257.95312 89.49479Q257.375 89.49479 257.0625 89.322914Q256.75 89.135414 256.60938 88.83854Q256.48438 88.541664 256.48438 87.58854L256.48438 84.010414L255.71875 84.010414L255.71875 83.197914L256.48438 83.197914L256.48438 81.65104L257.53125 81.02604L257.53125 83.197914L258.59375 83.197914L258.59375 84.010414L257.53125 84.010414L257.53125 87.65104Q257.53125 88.104164 257.57812 88.229164Q257.64062 88.354164 257.76562 88.43229Q257.89062 88.510414 258.125 88.510414Q258.3125 88.510414 258.59375 88.479164ZM262.29688 89.416664L262.29688 83.197914L263.23438 83.197914L263.23438 84.072914Q263.92188 83.05729 265.21875 83.05729Q265.78125 83.05729 266.25 83.260414Q266.73438 83.46354 266.96875 83.791664Q267.20312 84.11979 267.29688 84.55729Q267.34375 84.854164 267.34375 85.58854L267.34375 89.416664L266.29688 89.416664L266.29688 85.635414Q266.29688 84.979164 266.17188 84.666664Q266.04688 84.354164 265.73438 84.166664Q265.42188 83.96354 265.0 83.96354Q264.32812 83.96354 263.82812 84.40104Q263.34375 84.822914 263.34375 86.010414L263.34375 89.416664L262.29688 89.416664ZM273.375 89.416664L273.375 88.49479Q272.64062 89.55729 271.39062 89.55729Q270.84375 89.55729 270.35938 89.354164Q269.89062 89.135414 269.65625 88.822914Q269.42188 88.49479 269.32812 88.02604Q269.26562 87.729164 269.26562 87.041664L269.26562 83.197914L270.32812 83.197914L270.32812 86.65104Q270.32812 87.46354 270.39062 87.760414Q270.48438 88.166664 270.79688 88.416664Q271.125 88.65104 271.60938 88.65104Q272.07812 88.65104 272.48438 88.416664Q272.90625 88.166664 273.07812 87.74479Q273.26562 87.322914 273.26562 86.52604L273.26562 83.197914L274.3125 83.197914L274.3125 89.416664L273.375 89.416664ZM276.29688 89.416664L276.29688 83.197914L277.23438 83.197914L277.23438 84.072914Q277.53125 83.604164 278.01562 83.33854Q278.5 83.05729 279.125 83.05729Q279.8125 83.05729 280.25 83.33854Q280.70312 83.61979 280.875 84.135414Q281.625 83.05729 282.79688 83.05729Q283.73438 83.05729 284.21875 83.572914Q284.71875 84.072914 284.71875 85.15104L284.71875 89.416664L283.67188 89.416664L283.67188 85.49479Q283.67188 84.86979 283.5625 84.58854Q283.46875 84.30729 283.20312 84.135414Q282.9375 83.96354 282.5625 83.96354Q281.90625 83.96354 281.46875 84.40104Q281.04688 84.83854 281.04688 85.80729L281.04688 89.416664L279.98438 89.416664L279.98438 85.36979Q279.98438 84.666664 279.71875 84.322914Q279.46875 83.96354 278.89062 83.96354Q278.4375 83.96354 278.0625 84.197914Q277.6875 84.43229 277.51562 84.885414Q277.34375 85.33854 277.34375 86.18229L277.34375 89.416664L276.29688 89.416664ZM288.26562 89.416664L287.28125 89.416664L287.28125 80.822914L288.34375 80.822914L288.34375 83.885414Q289.01562 83.05729 290.04688 83.05729Q290.625 83.05729 291.125 83.291664Q291.64062 83.510414 291.96875 83.93229Q292.3125 84.354164 292.5 84.947914Q292.6875 85.541664 292.6875 86.21354Q292.6875 87.80729 291.89062 88.68229Q291.09375 89.55729 290.0 89.55729Q288.89062 89.55729 288.26562 88.635414L288.26562 89.416664ZM288.25 86.260414Q288.25 87.36979 288.5625 87.86979Q289.0625 88.68229 289.90625 88.68229Q290.59375 88.68229 291.09375 88.08854Q291.60938 87.49479 291.60938 86.291664Q291.60938 85.072914 291.125 84.49479Q290.64062 83.916664 289.95312 83.916664Q289.26562 83.916664 288.75 84.52604Q288.25 85.11979 288.25 86.260414ZM298.35938 88.65104Q297.76562 89.15104 297.21875 89.354164Q296.6875 89.55729 296.0625 89.55729Q295.03125 89.55729 294.48438 89.05729Q293.9375 88.55729 293.9375 87.77604Q293.9375 87.322914 294.14062 86.947914Q294.34375 86.55729 294.6875 86.33854Q295.03125 86.104164 295.45312 85.99479Q295.75 85.90104 296.39062 85.822914Q297.65625 85.68229 298.26562 85.46354Q298.26562 85.24479 298.26562 85.197914Q298.26562 84.541664 297.96875 84.27604Q297.5625 83.93229 296.76562 83.93229Q296.03125 83.93229 295.67188 84.197914Q295.3125 84.447914 295.14062 85.104164L294.10938 84.96354Q294.25 84.30729 294.57812 83.90104Q294.90625 83.49479 295.51562 83.27604Q296.125 83.05729 296.92188 83.05729Q297.71875 83.05729 298.21875 83.24479Q298.71875 83.43229 298.95312 83.71354Q299.1875 83.99479 299.28125 84.43229Q299.32812 84.697914 299.32812 85.40104L299.32812 86.80729Q299.32812 88.27604 299.39062 88.666664Q299.46875 89.05729 299.67188 89.416664L298.5625 89.416664Q298.40625 89.08854 298.35938 88.65104ZM298.26562 86.291664Q297.6875 86.52604 296.54688 86.697914Q295.89062 86.791664 295.625 86.916664Q295.35938 87.02604 295.20312 87.24479Q295.0625 87.46354 295.0625 87.74479Q295.0625 88.166664 295.375 88.447914Q295.70312 88.729164 296.3125 88.729164Q296.92188 88.729164 297.39062 88.46354Q297.875 88.197914 298.09375 87.729164Q298.26562 87.36979 298.26562 86.68229L298.26562 86.291664Z" fill-rule="nonzero"/><path fill="#ea4335" d="M316.5 80.416664C316.5 79.86438 316.94772 79.416664 317.5 79.416664L327.5 79.416664C328.05228 79.416664 328.5 79.86438 328.5 80.416664L328.5 90.416664C328.5 90.96895 328.05228 91.416664 327.5 91.416664L317.5 91.416664C316.94772 91.416664 316.5 90.96895 316.5 90.416664Z" fill-rule="nonzero"/><path fill="#1a1a1a" d="M338.4375 89.416664L336.53125 83.197914L337.625 83.197914L338.60938 86.791664L338.98438 88.11979Q339.01562 88.02604 339.3125 86.83854L340.29688 83.197914L341.375 83.197914L342.3125 86.80729L342.625 87.99479L342.98438 86.791664L344.04688 83.197914L345.07812 83.197914L343.125 89.416664L342.03125 89.416664L341.04688 85.68229L340.79688 84.635414L339.54688 89.416664L338.4375 89.416664ZM346.29688 82.041664L346.29688 80.822914L347.35938 80.822914L347.35938 82.041664L346.29688 82.041664ZM346.29688 89.416664L346.29688 83.197914L347.35938 83.197914L347.35938 89.416664L346.29688 89.416664ZM351.59375 88.479164L351.75 89.40104Q351.29688 89.49479 350.95312 89.49479Q350.375 89.49479 350.0625 89.322914Q349.75 89.135414 349.60938 88.83854Q349.48438 88.541664 349.48438 87.58854L349.48438 84.010414L348.71875 84.010414L348.71875 83.197914L349.48438 83.197914L349.48438 81.65104L350.53125 81.02604L350.53125 83.197914L351.59375 83.197914L351.59375 84.010414L350.53125 84.010414L350.53125 87.65104Q350.53125 88.104164 350.57812 88.229164Q350.64062 88.354164 350.76562 88.43229Q350.89062 88.510414 351.125 88.510414Q351.3125 88.510414 351.59375 88.479164ZM352.29688 89.416664L352.29688 80.822914L353.34375 80.822914L353.34375 83.90104Q354.07812 83.05729 355.20312 83.05729Q355.90625 83.05729 356.40625 83.33854Q356.92188 83.604164 357.14062 84.08854Q357.35938 84.55729 357.35938 85.479164L357.35938 89.416664L356.3125 89.416664L356.3125 85.479164Q356.3125 84.68229 355.96875 84.322914Q355.625 83.96354 355.0 83.96354Q354.53125 83.96354 354.10938 84.21354Q353.70312 84.447914 353.51562 84.86979Q353.34375 85.27604 353.34375 86.010414L353.34375 89.416664L352.29688 89.416664ZM362.29688 89.416664L362.29688 83.197914L363.23438 83.197914L363.23438 84.072914Q363.92188 83.05729 365.21875 83.05729Q365.78125 83.05729 366.25 83.260414Q366.73438 83.46354 366.96875 83.791664Q367.20312 84.11979 367.29688 84.55729Q367.34375 84.854164 367.34375 85.58854L367.34375 89.416664L366.29688 89.416664L366.29688 85.635414Q366.29688 84.979164 366.17188 84.666664Q366.04688 84.354164 365.73438 84.166664Q365.42188 83.96354 365.0 83.96354Q364.32812 83.96354 363.82812 84.40104Q363.34375 84.822914 363.34375 86.010414L363.34375 89.416664L362.29688 89.416664ZM373.375 89.416664L373.375 88.49479Q372.64062 89.55729 371.39062 89.55729Q370.84375 89.55729 370.35938 89.354164Q369.89062 89.135414 369.65625 88.822914Q369.42188 88.49479 369.32812 88.02604Q369.26562 87.729164 369.26562 87.041664L369.26562 83.197914L370.32812 83.197914L370.32812 86.65104Q370.32812 87.46354 370.39062 87.760414Q370.48438 88.166664 370.79688 88.416664Q371.125 88.65104 371.60938 88.65104Q372.07812 88.65104 372.48438 88.416664Q372.90625 88.166664 373.07812 87.74479Q373.26562 87.322914 373.26562 86.52604L373.26562 83.197914L374.3125 83.197914L374.3125 89.416664L373.375 89.416664ZM376.29688 89.416664L376.29688 83.197914L377.23438 83.197914L377.23438 84.072914Q377.53125 83.604164 378.01562 83.33854Q378.5 83.05729 379.125 83.05729Q379.8125 83.05729 380.25 83.33854Q380.70312 83.61979 380.875 84.135414Q381.625 83.05729 382.79688 83.05729Q383.73438 83.05729 384.21875 83.572914Q384.71875 84.072914 384.71875 85.15104L384.71875 89.416664L383.67188 89.416664L383.67188 85.49479Q383.67188 84.86979 383.5625 84.58854Q383.46875 84.30729 383.20312 84.135414Q382.9375 83.96354 382.5625 83.96354Q381.90625 83.96354 381.46875 84.40104Q381.04688 84.83854 381.04688 85.80729L381.04688 89.416664L379.98438 89.416664L379.98438 85.36979Q379.98438 84.666664 379.71875 84.322914Q379.46875 83.96354 378.89062 83.96354Q378.4375 83.96354 378.0625 84.197914Q377.6875 84.43229 377.51562 84.885414Q377.34375 85.33854 377.34375 86.18229L377.34375 89.416664L376.29688 89.416664ZM388.26562 89.416664L387.28125 89.416664L387.28125 80.822914L388.34375 80.822914L388.34375 83.885414Q389.01562 83.05729 390.04688 83.05729Q390.625 83.05729 391.125 83.291664Q391.64062 83.510414 391.96875 83.93229Q392.3125 84.354164 392.5 84.947914Q392.6875 85.541664 392.6875 86.21354Q392.6875 87.80729 391.89062 88.68229Q391.09375 89.55729 390.0 89.55729Q388.89062 89.55729 388.26562 88.635414L388.26562 89.416664ZM388.25 86.260414Q388.25 87.36979 388.5625 87.86979Q389.0625 88.68229 389.90625 88.68229Q390.59375 88.68229 391.09375 88.08854Q391.60938 87.49479 391.60938 86.291664Q391.60938 85.072914 391.125 84.49479Q390.64062 83.916664 389.95312 83.916664Q389.26562 83.916664 388.75 84.52604Q388.25 85.11979 388.25 86.260414ZM398.35938 88.65104Q397.76562 89.15104 397.21875 89.354164Q396.6875 89.55729 396.0625 89.55729Q395.03125 89.55729 394.48438 89.05729Q393.9375 88.55729 393.9375 87.77604Q393.9375 87.322914 394.14062 86.947914Q394.34375 86.55729 394.6875 86.33854Q395.03125 86.104164 395.45312 85.99479Q395.75 85.90104 396.39062 85.822914Q397.65625 85.68229 398.26562 85.46354Q398.26562 85.24479 398.26562 85.197914Q398.26562 84.541664 397.96875 84.27604Q397.5625 83.93229 396.76562 83.93229Q396.03125 83.93229 395.67188 84.197914Q395.3125 84.447914 395.14062 85.104164L394.10938 84.96354Q394.25 84.30729 394.57812 83.90104Q394.90625 83.49479 395.51562 83.27604Q396.125 83.05729 396.92188 83.05729Q397.71875 83.05729 398.21875 83.24479Q398.71875 83.43229 398.95312 83.71354Q399.1875 83.99479 399.28125 84.43229Q399.32812 84.697914 399.32812 85.40104L399.32812 86.80729Q399.32812 88.27604 399.39062 88.666664Q399.46875 89.05729 399.67188 89.416664L398.5625 89.416664Q398.40625 89.08854 398.35938 88.65104ZM398.26562 86.291664Q397.6875 86.52604 396.54688 86.697914Q395.89062 86.791664 395.625 86.916664Q395.35938 87.02604 395.20312 87.24479Q395.0625 87.46354 395.0625 87.74479Q395.0625 88.166664 395.375 88.447914Q395.70312 88.729164 396.3125 88.729164Q396.92188 88.729164 397.39062 88.46354Q397.875 88.197914 398.09375 87.729164Q398.26562 87.36979 398.26562 86.68229L398.26562 86.291664Z" fill-rule="nonzero"/><path fill="#999999" d="M21.4875 63.05L18.721874 55.784374L20.034374 55.784374L21.58125 60.14375Q21.83125 60.846874 22.05 61.596874Q22.221874 61.01875 22.503124 60.221874L24.128124 55.784374L25.39375 55.784374L22.64375 63.05L21.4875 63.05ZM26.01875 59.425Q26.01875 57.409374 27.14375 56.425Q28.065624 55.628124 29.425 55.628124Q30.909374 55.628124 31.8625 56.6125Q32.815624 57.58125 32.815624 59.315624Q32.815624 60.721874 32.39375 61.534374Q31.971874 62.33125 31.159374 62.784374Q30.3625 63.221874 29.425 63.221874Q27.89375 63.221874 26.95625 62.2375Q26.01875 61.253124 26.01875 59.425ZM27.284374 59.425Q27.284374 60.815624 27.89375 61.51875Q28.503124 62.20625 29.425 62.20625Q30.33125 62.20625 30.940624 61.503124Q31.55 60.8 31.55 59.378124Q31.55 58.034374 30.940624 57.346874Q30.33125 56.64375 29.425 56.64375Q28.503124 56.64375 27.89375 57.33125Q27.284374 58.01875 27.284374 59.425ZM33.659374 63.05L36.3 59.26875L33.846874 55.784374L35.39375 55.784374L36.503124 57.4875Q36.815624 57.971874 37.003124 58.3Q37.315624 57.846874 37.565624 57.503124L38.784374 55.784374L40.253124 55.784374L37.753124 59.20625L40.440624 63.05L38.940624 63.05L37.440624 60.8L37.05 60.190624L35.14375 63.05L33.659374 63.05ZM45.440624 60.70625L46.721874 60.8625Q46.409374 61.9875 45.596874 62.6125Q44.784374 63.221874 43.51875 63.221874Q41.925 63.221874 40.9875 62.2375Q40.065624 61.253124 40.065624 59.4875Q40.065624 57.64375 41.003124 56.64375Q41.95625 55.628124 43.45625 55.628124Q44.909374 55.628124 45.83125 56.628124Q46.753124 57.6125 46.753124 59.409374Q46.753124 59.51875 46.753124 59.7375L41.33125 59.7375Q41.409374 60.925 42.003124 61.565624Q42.6125 62.20625 43.534374 62.20625Q44.20625 62.20625 44.675 61.846874Q45.159374 61.4875 45.440624 60.70625ZM41.409374 58.721874L45.45625 58.721874Q45.378124 57.8 44.9875 57.346874Q44.409374 56.64375 43.471874 56.64375Q42.6125 56.64375 42.034374 57.20625Q41.471874 57.76875 41.409374 58.721874ZM48.440624 63.05L48.440624 53.034374L49.675 53.034374L49.675 63.05L48.440624 63.05ZM54.9875 60.878124L56.190624 60.690624Q56.3 61.425 56.76875 61.815624Q57.2375 62.20625 58.08125 62.20625Q58.925 62.20625 59.33125 61.8625Q59.753124 61.51875 59.753124 61.05Q59.753124 60.628124 59.378124 60.39375Q59.128124 60.221874 58.128124 59.971874Q56.76875 59.628124 56.2375 59.378124Q55.721874 59.128124 55.45625 58.690624Q55.190624 58.253124 55.190624 57.721874Q55.190624 57.2375 55.409374 56.83125Q55.628124 56.409374 56.01875 56.128124Q56.3 55.925 56.784374 55.784374Q57.284374 55.628124 57.8625 55.628124Q58.70625 55.628124 59.346874 55.878124Q60.003124 56.1125 60.315624 56.534374Q60.628124 56.95625 60.7375 57.659374L59.534374 57.83125Q59.45625 57.26875 59.05 56.95625Q58.659374 56.64375 57.940624 56.64375Q57.096874 56.64375 56.7375 56.925Q56.378124 57.190624 56.378124 57.58125Q56.378124 57.815624 56.51875 58.003124Q56.675 58.20625 57.003124 58.33125Q57.175 58.39375 58.08125 58.64375Q59.39375 59.003124 59.909374 59.221874Q60.425 59.440624 60.70625 59.8625Q61.003124 60.284374 61.003124 60.909374Q61.003124 61.534374 60.64375 62.08125Q60.3 62.6125 59.6125 62.925Q58.940624 63.221874 58.08125 63.221874Q56.675 63.221874 55.925 62.628124Q55.190624 62.034374 54.9875 60.878124ZM62.4875 54.440624L62.4875 53.034374L63.70625 53.034374L63.70625 54.440624L62.4875 54.440624ZM62.4875 63.05L62.4875 55.784374L63.70625 55.784374L63.70625 63.05L62.4875 63.05ZM64.83125 63.05L64.83125 62.05L69.44063 56.753124Q68.65938 56.784374 68.05 56.784374L65.09688 56.784374L65.09688 55.784374L71.03438 55.784374L71.03438 56.596874L67.09688 61.20625L66.34688 62.05Q67.175 61.9875 67.89375 61.9875L71.25313 61.9875L71.25313 63.05L64.83125 63.05ZM76.44063 60.70625L77.72188 60.8625Q77.40938 61.9875 76.59688 62.6125Q75.78438 63.221874 74.51875 63.221874Q72.925 63.221874 71.9875 62.2375Q71.06563 61.253124 71.06563 59.4875Q71.06563 57.64375 72.00313 56.64375Q72.95625 55.628124 74.45625 55.628124Q75.90938 55.628124 76.83125 56.628124Q77.75313 57.6125 77.75313 59.409374Q77.75313 59.51875 77.75313 59.7375L72.33125 59.7375Q72.40938 60.925 73.00313 61.565624Q73.6125 62.20625 74.53438 62.20625Q75.20625 62.20625 75.675 61.846874Q76.15938 61.4875 76.44063 60.70625ZM72.40938 58.721874L76.45625 58.721874Q76.37813 57.8 75.9875 57.346874Q75.40938 56.64375 74.47188 56.64375Q73.6125 56.64375 73.03438 57.20625Q72.47188 57.76875 72.40938 58.721874ZM83.12813 58.1125Q83.12813 56.33125 83.4875 55.253124Q83.8625 54.159374 84.58125 53.58125Q85.3 52.9875 86.39375 52.9875Q87.20625 52.9875 87.81563 53.315624Q88.425 53.64375 88.81563 54.253124Q89.22188 54.8625 89.44063 55.7375Q89.65938 56.6125 89.65938 58.1125Q89.65938 59.878124 89.3 60.95625Q88.94063 62.034374 88.22188 62.628124Q87.50313 63.221874 86.39375 63.221874Q84.95625 63.221874 84.12813 62.175Q83.12813 60.925 83.12813 58.1125ZM84.39375 58.1125Q84.39375 60.58125 84.97188 61.39375Q85.55 62.20625 86.39375 62.20625Q87.25313 62.20625 87.83125 61.39375Q88.40938 60.565624 88.40938 58.1125Q88.40938 55.628124 87.83125 54.815624Q87.25313 54.003124 86.37813 54.003124Q85.53438 54.003124 85.03438 54.721874Q84.39375 55.64375 84.39375 58.1125ZM91.81563 63.05L91.81563 61.64375L93.22188 61.64375L93.22188 63.05L91.81563 63.05ZM99.76875 63.05L98.53438 63.05L98.53438 55.20625Q98.09688 55.628124 97.3625 56.065624Q96.64375 56.4875 96.08125 56.690624L96.08125 55.503124Q97.1125 55.01875 97.87813 54.33125Q98.65938 53.64375 98.97188 52.9875L99.76875 52.9875L99.76875 63.05ZM103.47188 63.05L103.47188 55.784374L104.58125 55.784374L104.58125 56.815624Q104.90938 56.26875 105.47188 55.95625Q106.05 55.628124 106.76875 55.628124Q107.58125 55.628124 108.09688 55.971874Q108.6125 56.3 108.83125 56.89375Q109.69063 55.628124 111.06563 55.628124Q112.14375 55.628124 112.72188 56.221874Q113.31563 56.815624 113.31563 58.065624L113.31563 63.05L112.08125 63.05L112.08125 58.471874Q112.08125 57.7375 111.95625 57.409374Q111.84688 57.08125 111.53438 56.89375Q111.22188 56.690624 110.8 56.690624Q110.03438 56.690624 109.51875 57.20625Q109.01875 57.70625 109.01875 58.83125L109.01875 63.05L107.78438 63.05L107.78438 58.33125Q107.78438 57.51875 107.4875 57.1125Q107.19063 56.690624 106.50313 56.690624Q105.9875 56.690624 105.53438 56.971874Q105.09688 57.2375 104.89375 57.76875Q104.70625 58.284374 104.70625 59.284374L104.70625 63.05L103.47188 63.05ZM114.8 63.05L114.8 61.64375L116.19063 61.64375L116.19063 63.05Q116.19063 63.815624 115.90938 64.28438Q115.64375 64.76875 115.05 65.03438L114.70625 64.50313Q115.09688 64.33125 115.28438 64.00313Q115.47188 63.675 115.4875 63.05L114.8 63.05ZM127.20625 62.159374Q126.53438 62.7375 125.89375 62.9875Q125.26875 63.221874 124.53438 63.221874Q123.34688 63.221874 122.69063 62.64375Q122.05 62.05 122.05 61.128124Q122.05 60.596874 122.28438 60.159374Q122.53438 59.721874 122.925 59.45625Q123.33125 59.190624 123.81563 59.05Q124.175 58.95625 124.90938 58.8625Q126.40938 58.690624 127.1125 58.440624Q127.1125 58.190624 127.1125 58.128124Q127.1125 57.3625 126.76875 57.065624Q126.3 56.64375 125.3625 56.64375Q124.50313 56.64375 124.08125 56.95625Q123.675 57.253124 123.47188 58.01875L122.26875 57.8625Q122.425 57.08125 122.8 56.6125Q123.19063 56.14375 123.89375 55.89375Q124.6125 55.628124 125.55 55.628124Q126.47188 55.628124 127.05 55.846874Q127.62813 56.065624 127.89375 56.39375Q128.175 56.721874 128.28438 57.2375Q128.34688 57.55 128.34688 58.3625L128.34688 60.003124Q128.34688 61.721874 128.425 62.175Q128.50313 62.628124 128.7375 63.05L127.45625 63.05Q127.26875 62.659374 127.20625 62.159374ZM127.1125 59.409374Q126.44063 59.675 125.09688 59.878124Q124.34688 59.9875 124.01875 60.128124Q123.70625 60.253124 123.53438 60.51875Q123.3625 60.784374 123.3625 61.096874Q123.3625 61.596874 123.7375 61.925Q124.1125 62.253124 124.83125 62.253124Q125.55 62.253124 126.09688 61.940624Q126.64375 61.628124 126.90938 61.08125Q127.1125 60.675 127.1125 59.8625L127.1125 59.409374ZM132.4875 63.05L129.72188 55.784374L131.03438 55.784374L132.58125 60.14375Q132.83125 60.846874 133.05 61.596874Q133.22188 61.01875 133.50313 60.221874L135.12813 55.784374L136.39375 55.784374L133.64375 63.05L132.4875 63.05ZM137.25313 63.659374L138.44063 63.83125Q138.51875 64.37813 138.8625 64.64375Q139.31563 64.97188 140.1125 64.97188Q140.97188 64.97188 141.425 64.62813Q141.89375 64.3 142.06563 63.675Q142.15938 63.3 142.14375 62.096874Q141.34688 63.05 140.14375 63.05Q138.64375 63.05 137.81563 61.971874Q137.00313 60.89375 137.00313 59.378124Q137.00313 58.346874 137.37813 57.471874Q137.75313 56.58125 138.45625 56.1125Q139.175 55.628124 140.14375 55.628124Q141.425 55.628124 142.26875 56.659374L142.26875 55.784374L143.39375 55.784374L143.39375 62.065624Q143.39375 63.76875 143.05 64.47188Q142.70625 65.175 141.95625 65.58125Q141.20625 66.00313 140.1125 66.00313Q138.81563 66.00313 138.01875 65.40938Q137.22188 64.83125 137.25313 63.659374ZM138.26875 59.284374Q138.26875 60.721874 138.83125 61.378124Q139.39375 62.034374 140.25313 62.034374Q141.09688 62.034374 141.675 61.378124Q142.25313 60.721874 142.25313 59.33125Q142.25313 58.003124 141.65938 57.33125Q141.06563 56.64375 140.2375 56.64375Q139.40938 56.64375 138.83125 57.315624Q138.26875 57.971874 138.26875 59.284374ZM154.20625 62.159374Q153.53438 62.7375 152.89375 62.9875Q152.26875 63.221874 151.53438 63.221874Q150.34688 63.221874 149.69063 62.64375Q149.05 62.05 149.05 61.128124Q149.05 60.596874 149.28438 60.159374Q149.53438 59.721874 149.925 59.45625Q150.33125 59.190624 150.81563 59.05Q151.175 58.95625 151.90938 58.8625Q153.40938 58.690624 154.1125 58.440624Q154.1125 58.190624 154.1125 58.128124Q154.1125 57.3625 153.76875 57.065624Q153.3 56.64375 152.3625 56.64375Q151.50313 56.64375 151.08125 56.95625Q150.675 57.253124 150.47188 58.01875L149.26875 57.8625Q149.425 57.08125 149.8 56.6125Q150.19063 56.14375 150.89375 55.89375Q151.6125 55.628124 152.55 55.628124Q153.47188 55.628124 154.05 55.846874Q154.62813 56.065624 154.89375 56.39375Q155.175 56.721874 155.28438 57.2375Q155.34688 57.55 155.34688 58.3625L155.34688 60.003124Q155.34688 61.721874 155.425 62.175Q155.50313 62.628124 155.7375 63.05L154.45625 63.05Q154.26875 62.659374 154.20625 62.159374ZM154.1125 59.409374Q153.44063 59.675 152.09688 59.878124Q151.34688 59.9875 151.01875 60.128124Q150.70625 60.253124 150.53438 60.51875Q150.3625 60.784374 150.3625 61.096874Q150.3625 61.596874 150.7375 61.925Q151.1125 62.253124 151.83125 62.253124Q152.55 62.253124 153.09688 61.940624Q153.64375 61.628124 153.90938 61.08125Q154.1125 60.675 154.1125 59.8625L154.1125 59.409374ZM157.25313 63.659374L158.44063 63.83125Q158.51875 64.37813 158.8625 64.64375Q159.31563 64.97188 160.1125 64.97188Q160.97188 64.97188 161.425 64.62813Q161.89375 64.3 162.06563 63.675Q162.15938 63.3 162.14375 62.096874Q161.34688 63.05 160.14375 63.05Q158.64375 63.05 157.81563 61.971874Q157.00313 60.89375 157.00313 59.378124Q157.00313 58.346874 157.37813 57.471874Q157.75313 56.58125 158.45625 56.1125Q159.175 55.628124 160.14375 55.628124Q161.425 55.628124 162.26875 56.659374L162.26875 55.784374L163.39375 55.784374L163.39375 62.065624Q163.39375 63.76875 163.05 64.47188Q162.70625 65.175 161.95625 65.58125Q161.20625 66.00313 160.1125 66.00313Q158.81563 66.00313 158.01875 65.40938Q157.22188 64.83125 157.25313 63.659374ZM158.26875 59.284374Q158.26875 60.721874 158.83125 61.378124Q159.39375 62.034374 160.25313 62.034374Q161.09688 62.034374 161.675 61.378124Q162.25313 60.721874 162.25313 59.33125Q162.25313 58.003124 161.65938 57.33125Q161.06563 56.64375 160.2375 56.64375Q159.40938 56.64375 158.83125 57.315624Q158.26875 57.971874 158.26875 59.284374ZM165.25313 63.659374L166.44063 63.83125Q166.51875 64.37813 166.8625 64.64375Q167.31563 64.97188 168.1125 64.97188Q168.97188 64.97188 169.425 64.62813Q169.89375 64.3 170.06563 63.675Q170.15938 63.3 170.14375 62.096874Q169.34688 63.05 168.14375 63.05Q166.64375 63.05 165.81563 61.971874Q165.00313 60.89375 165.00313 59.378124Q165.00313 58.346874 165.37813 57.471874Q165.75313 56.58125 166.45625 56.1125Q167.175 55.628124 168.14375 55.628124Q169.425 55.628124 170.26875 56.659374L170.26875 55.784374L171.39375 55.784374L171.39375 62.065624Q171.39375 63.76875 171.05 64.47188Q170.70625 65.175 169.95625 65.58125Q169.20625 66.00313 168.1125 66.00313Q166.81563 66.00313 166.01875 65.40938Q165.22188 64.83125 165.25313 63.659374ZM166.26875 59.284374Q166.26875 60.721874 166.83125 61.378124Q167.39375 62.034374 168.25313 62.034374Q169.09688 62.034374 169.675 61.378124Q170.25313 60.721874 170.25313 59.33125Q170.25313 58.003124 169.65938 57.33125Q169.06563 56.64375 168.2375 56.64375Q167.40938 56.64375 166.83125 57.315624Q166.26875 57.971874 166.26875 59.284374ZM173.45625 63.05L173.45625 55.784374L174.56563 55.784374L174.56563 56.89375Q174.9875 56.1125 175.34688 55.878124Q175.70625 55.628124 176.14375 55.628124Q176.76875 55.628124 177.40938 56.01875L176.9875 57.159374Q176.53438 56.89375 176.08125 56.89375Q175.675 56.89375 175.34688 57.14375Q175.03438 57.378124 174.89375 57.815624Q174.69063 58.471874 174.69063 59.253124L174.69063 63.05L173.45625 63.05ZM183.44063 60.70625L184.72188 60.8625Q184.40938 61.9875 183.59688 62.6125Q182.78438 63.221874 181.51875 63.221874Q179.925 63.221874 178.9875 62.2375Q178.06563 61.253124 178.06563 59.4875Q178.06563 57.64375 179.00313 56.64375Q179.95625 55.628124 181.45625 55.628124Q182.90938 55.628124 183.83125 56.628124Q184.75313 57.6125 184.75313 59.409374Q184.75313 59.51875 184.75313 59.7375L179.33125 59.7375Q179.40938 60.925 180.00313 61.565624Q180.6125 62.20625 181.53438 62.20625Q182.20625 62.20625 182.675 61.846874Q183.15938 61.4875 183.44063 60.70625ZM179.40938 58.721874L183.45625 58.721874Q183.37813 57.8 182.9875 57.346874Q182.40938 56.64375 181.47188 56.64375Q180.6125 56.64375 180.03438 57.20625Q179.47188 57.76875 179.40938 58.721874ZM186.25313 63.659374L187.44063 63.83125Q187.51875 64.37813 187.8625 64.64375Q188.31563 64.97188 189.1125 64.97188Q189.97188 64.97188 190.425 64.62813Q190.89375 64.3 191.06563 63.675Q191.15938 63.3 191.14375 62.096874Q190.34688 63.05 189.14375 63.05Q187.64375 63.05 186.81563 61.971874Q186.00313 60.89375 186.00313 59.378124Q186.00313 58.346874 186.37813 57.471874Q186.75313 56.58125 187.45625 56.1125Q188.175 55.628124 189.14375 55.628124Q190.425 55.628124 191.26875 56.659374L191.26875 55.784374L192.39375 55.784374L192.39375 62.065624Q192.39375 63.76875 192.05 64.47188Q191.70625 65.175 190.95625 65.58125Q190.20625 66.00313 189.1125 66.00313Q187.81563 66.00313 187.01875 65.40938Q186.22188 64.83125 186.25313 63.659374ZM187.26875 59.284374Q187.26875 60.721874 187.83125 61.378124Q188.39375 62.034374 189.25313 62.034374Q190.09688 62.034374 190.675 61.378124Q191.25313 60.721874 191.25313 59.33125Q191.25313 58.003124 190.65938 57.33125Q190.06563 56.64375 189.2375 56.64375Q188.40938 56.64375 187.83125 57.315624Q187.26875 57.971874 187.26875 59.284374ZM199.20625 62.159374Q198.53438 62.7375 197.89375 62.9875Q197.26875 63.221874 196.53438 63.221874Q195.34688 63.221874 194.69063 62.64375Q194.05 62.05 194.05 61.128124Q194.05 60.596874 194.28438 60.159374Q194.53438 59.721874 194.925 59.45625Q195.33125 59.190624 195.81563 59.05Q196.175 58.95625 196.90938 58.8625Q198.40938 58.690624 199.1125 58.440624Q199.1125 58.190624 199.1125 58.128124Q199.1125 57.3625 198.76875 57.065624Q198.3 56.64375 197.3625 56.64375Q196.50313 56.64375 196.08125 56.95625Q195.675 57.253124 195.47188 58.01875L194.26875 57.8625Q194.425 57.08125 194.8 56.6125Q195.19063 56.14375 195.89375 55.89375Q196.6125 55.628124 197.55 55.628124Q198.47188 55.628124 199.05 55.846874Q199.62813 56.065624 199.89375 56.39375Q200.175 56.721874 200.28438 57.2375Q200.34688 57.55 200.34688 58.3625L200.34688 60.003124Q200.34688 61.721874 200.425 62.175Q200.50313 62.628124 200.7375 63.05L199.45625 63.05Q199.26875 62.659374 199.20625 62.159374ZM199.1125 59.409374Q198.44063 59.675 197.09688 59.878124Q196.34688 59.9875 196.01875 60.128124Q195.70625 60.253124 195.53438 60.51875Q195.3625 60.784374 195.3625 61.096874Q195.3625 61.596874 195.7375 61.925Q196.1125 62.253124 196.83125 62.253124Q197.55 62.253124 198.09688 61.940624Q198.64375 61.628124 198.90938 61.08125Q199.1125 60.675 199.1125 59.8625L199.1125 59.409374ZM205.15938 61.95625L205.33125 63.034374Q204.81563 63.14375 204.40938 63.14375Q203.7375 63.14375 203.3625 62.940624Q203.00313 62.721874 202.84688 62.378124Q202.70625 62.034374 202.70625 60.925L202.70625 56.753124L201.8 56.753124L201.8 55.784374L202.70625 55.784374L202.70625 53.9875L203.925 53.253124L203.925 55.784374L205.15938 55.784374L205.15938 56.753124L203.925 56.753124L203.925 60.9875Q203.925 61.51875 203.9875 61.675Q204.05 61.815624 204.19063 61.909374Q204.34688 62.003124 204.6125 62.003124Q204.83125 62.003124 205.15938 61.95625ZM206.4875 54.440624L206.4875 53.034374L207.70625 53.034374L207.70625 54.440624L206.4875 54.440624ZM206.4875 63.05L206.4875 55.784374L207.70625 55.784374L207.70625 63.05L206.4875 63.05ZM209.01875 59.425Q209.01875 57.409374 210.14375 56.425Q211.06563 55.628124 212.425 55.628124Q213.90938 55.628124 214.8625 56.6125Q215.81563 57.58125 215.81563 59.315624Q215.81563 60.721874 215.39375 61.534374Q214.97188 62.33125 214.15938 62.784374Q213.3625 63.221874 212.425 63.221874Q210.89375 63.221874 209.95625 62.2375Q209.01875 61.253124 209.01875 59.425ZM210.28438 59.425Q210.28438 60.815624 210.89375 61.51875Q211.50313 62.20625 212.425 62.20625Q213.33125 62.20625 213.94063 61.503124Q214.55 60.8 214.55 59.378124Q214.55 58.034374 213.94063 57.346874Q213.33125 56.64375 212.425 56.64375Q211.50313 56.64375 210.89375 57.33125Q210.28438 58.01875 210.28438 59.425ZM217.47188 63.05L217.47188 55.784374L218.58125 55.784374L218.58125 56.815624Q219.37813 55.628124 220.89375 55.628124Q221.55 55.628124 222.09688 55.8625Q222.64375 56.096874 222.90938 56.4875Q223.19063 56.8625 223.3 57.39375Q223.37813 57.7375 223.37813 58.58125L223.37813 63.05L222.14375 63.05L222.14375 58.628124Q222.14375 57.878124 222.00313 57.51875Q221.8625 57.14375 221.4875 56.925Q221.12813 56.690624 220.62813 56.690624Q219.84688 56.690624 219.26875 57.190624Q218.70625 57.690624 218.70625 59.08125L218.70625 63.05L217.47188 63.05Z" fill-rule="nonzero"/><path fill="#757575" d="M20.01875 37.55L20.01875 23.2375L25.39375 23.2375Q27.034374 23.2375 28.01875 23.675Q29.003124 24.096874 29.565624 25.003124Q30.128124 25.909374 30.128124 26.89375Q30.128124 27.815624 29.628124 28.628124Q29.14375 29.440624 28.128124 29.925Q29.425 30.315624 30.128124 31.2375Q30.83125 32.14375 30.83125 33.39375Q30.83125 34.409374 30.39375 35.26875Q29.971874 36.128124 29.346874 36.596874Q28.721874 37.065624 27.784374 37.315624Q26.846874 37.55 25.471874 37.55L20.01875 37.55ZM21.909374 29.253124L25.003124 29.253124Q26.26875 29.253124 26.815624 29.08125Q27.534374 28.8625 27.89375 28.378124Q28.26875 27.878124 28.26875 27.1125Q28.26875 26.409374 27.925 25.8625Q27.58125 25.315624 26.940624 25.128124Q26.315624 24.925 24.76875 24.925L21.909374 24.925L21.909374 29.253124ZM21.909374 35.8625L25.471874 35.8625Q26.39375 35.8625 26.76875 35.784374Q27.425 35.675 27.8625 35.409374Q28.3 35.128124 28.58125 34.6125Q28.8625 34.08125 28.8625 33.39375Q28.8625 32.596874 28.45625 32.003124Q28.05 31.409374 27.315624 31.175Q26.58125 30.940624 25.221874 30.940624L21.909374 30.940624L21.909374 35.8625ZM33.128124 37.55L33.128124 23.2375L43.4875 23.2375L43.4875 24.925L35.034374 24.925L35.034374 29.3L42.940624 29.3L42.940624 30.9875L35.034374 30.9875L35.034374 35.8625L43.815624 35.8625L43.815624 37.55L33.128124 37.55ZM50.190624 37.55L44.64375 23.2375L46.690624 23.2375L50.409374 33.628124Q50.8625 34.878124 51.159374 35.971874Q51.4875 34.8 51.940624 33.628124L55.8 23.2375L57.7375 23.2375L52.128124 37.55L50.190624 37.55ZM71.64375 33.753124L73.3625 33.971874Q73.08125 35.76875 71.90938 36.784374Q70.75313 37.784374 69.05 37.784374Q66.925 37.784374 65.62813 36.39375Q64.33125 35.003124 64.33125 32.409374Q64.33125 30.721874 64.87813 29.471874Q65.44063 28.20625 66.58125 27.58125Q67.72188 26.940624 69.06563 26.940624Q70.75313 26.940624 71.81563 27.8Q72.89375 28.659374 73.20625 30.221874L71.4875 30.4875Q71.25313 29.440624 70.62813 28.925Q70.00313 28.39375 69.12813 28.39375Q67.8 28.39375 66.97188 29.346874Q66.14375 30.3 66.14375 32.346874Q66.14375 34.440624 66.94063 35.39375Q67.7375 36.33125 69.03438 36.33125Q70.06563 36.33125 70.75313 35.70625Q71.45625 35.065624 71.64375 33.753124ZM74.22188 32.3625Q74.22188 29.4875 75.81563 28.096874Q77.15938 26.940624 79.08125 26.940624Q81.22188 26.940624 82.56563 28.346874Q83.925 29.753124 83.925 32.221874Q83.925 34.221874 83.33125 35.378124Q82.7375 36.51875 81.58125 37.159374Q80.44063 37.784374 79.08125 37.784374Q76.89375 37.784374 75.55 36.39375Q74.22188 34.9875 74.22188 32.3625ZM76.01875 32.3625Q76.01875 34.3625 76.87813 35.346874Q77.75313 36.33125 79.08125 36.33125Q80.39375 36.33125 81.25313 35.346874Q82.12813 34.346874 82.12813 32.3Q82.12813 30.378124 81.25313 29.39375Q80.37813 28.39375 79.08125 28.39375Q77.75313 28.39375 76.87813 29.39375Q76.01875 30.378124 76.01875 32.3625ZM85.8625 37.55L85.8625 27.175L87.44063 27.175L87.44063 28.628124Q87.925 27.878124 88.7375 27.409374Q89.55 26.940624 90.58125 26.940624Q91.7375 26.940624 92.47188 27.425Q93.20625 27.89375 93.51875 28.753124Q94.75313 26.940624 96.72188 26.940624Q98.26875 26.940624 99.09688 27.8Q99.925 28.659374 99.925 30.425L99.925 37.55L98.175 37.55L98.175 31.01875Q98.175 29.95625 98.00313 29.503124Q97.83125 29.034374 97.37813 28.753124Q96.94063 28.471874 96.33125 28.471874Q95.2375 28.471874 94.50313 29.20625Q93.78438 29.925 93.78438 31.51875L93.78438 37.55L92.03438 37.55L92.03438 30.815624Q92.03438 29.64375 91.59688 29.065624Q91.175 28.471874 90.19063 28.471874Q89.45625 28.471874 88.81563 28.8625Q88.19063 29.253124 87.90938 30.003124Q87.62813 30.753124 87.62813 32.175L87.62813 37.55L85.8625 37.55ZM101.8625 41.51875L101.8625 27.175L103.47188 27.175L103.47188 28.51875Q104.03438 27.7375 104.7375 27.346874Q105.45625 26.940624 106.47188 26.940624Q107.8 26.940624 108.81563 27.628124Q109.83125 28.315624 110.34688 29.565624Q110.87813 30.8 110.87813 32.284374Q110.87813 33.878124 110.3 35.159374Q109.7375 36.425 108.64375 37.1125Q107.55 37.784374 106.34688 37.784374Q105.47188 37.784374 104.76875 37.409374Q104.08125 37.034374 103.62813 36.471874L103.62813 41.51875L101.8625 41.51875ZM103.45625 32.425Q103.45625 34.425 104.26875 35.378124Q105.08125 36.33125 106.2375 36.33125Q107.40938 36.33125 108.2375 35.346874Q109.08125 34.3625 109.08125 32.26875Q109.08125 30.3 108.25313 29.315624Q107.44063 28.315624 106.31563 28.315624Q105.19063 28.315624 104.31563 29.378124Q103.45625 30.425 103.45625 32.425ZM119.65938 37.55L119.65938 36.01875Q118.45625 37.784374 116.37813 37.784374Q115.45625 37.784374 114.65938 37.440624Q113.8625 37.08125 113.47188 36.55Q113.09688 36.01875 112.94063 35.2375Q112.83125 34.721874 112.83125 33.596874L112.83125 27.175L114.58125 27.175L114.58125 32.925Q114.58125 34.3 114.69063 34.784374Q114.8625 35.471874 115.39375 35.878124Q115.94063 36.26875 116.72188 36.26875Q117.51875 36.26875 118.20625 35.8625Q118.90938 35.45625 119.19063 34.76875Q119.4875 34.065624 119.4875 32.7375L119.4875 27.175L121.2375 27.175L121.2375 37.55L119.65938 37.55ZM126.70625 35.971874L126.95625 37.534374Q126.22188 37.690624 125.62813 37.690624Q124.675 37.690624 124.14375 37.39375Q123.62813 37.08125 123.40938 36.596874Q123.19063 36.096874 123.19063 34.51875L123.19063 28.55L121.90938 28.55L121.90938 27.175L123.19063 27.175L123.19063 24.6125L124.94063 23.55L124.94063 27.175L126.70625 27.175L126.70625 28.55L124.94063 28.55L124.94063 34.6125Q124.94063 35.3625 125.03438 35.58125Q125.12813 35.784374 125.33125 35.925Q125.55 36.05 125.94063 36.05Q126.22188 36.05 126.70625 35.971874ZM135.64375 36.26875Q134.65938 37.096874 133.75313 37.440624Q132.84688 37.784374 131.81563 37.784374Q130.1125 37.784374 129.19063 36.95625Q128.26875 36.1125 128.26875 34.815624Q128.26875 34.05 128.6125 33.425Q128.97188 32.8 129.53438 32.425Q130.09688 32.034374 130.8 31.83125Q131.31563 31.70625 132.3625 31.565624Q134.4875 31.315624 135.4875 30.971874Q135.50313 30.6125 135.50313 30.503124Q135.50313 29.440624 135.00313 28.9875Q134.33125 28.39375 133.00313 28.39375Q131.75313 28.39375 131.15938 28.83125Q130.58125 29.26875 130.3 30.378124L128.58125 30.14375Q128.81563 29.034374 129.34688 28.3625Q129.87813 27.675 130.89375 27.315624Q131.90938 26.940624 133.25313 26.940624Q134.58125 26.940624 135.40938 27.253124Q136.2375 27.565624 136.62813 28.05Q137.01875 28.51875 137.175 29.2375Q137.26875 29.690624 137.26875 30.8625L137.26875 33.20625Q137.26875 35.659374 137.37813 36.315624Q137.4875 36.95625 137.83125 37.55L135.9875 37.55Q135.72188 37.003124 135.64375 36.26875ZM135.4875 32.346874Q134.53438 32.7375 132.6125 33.003124Q131.53438 33.159374 131.08125 33.3625Q130.64375 33.55 130.39375 33.925Q130.14375 34.3 130.14375 34.76875Q130.14375 35.471874 130.675 35.940624Q131.20625 36.409374 132.2375 36.409374Q133.25313 36.409374 134.03438 35.971874Q134.83125 35.51875 135.20625 34.753124Q135.4875 34.14375 135.4875 32.9875L135.4875 32.346874ZM143.70625 35.971874L143.95625 37.534374Q143.22188 37.690624 142.62813 37.690624Q141.675 37.690624 141.14375 37.39375Q140.62813 37.08125 140.40938 36.596874Q140.19063 36.096874 140.19063 34.51875L140.19063 28.55L138.90938 28.55L138.90938 27.175L140.19063 27.175L140.19063 24.6125L141.94063 23.55L141.94063 27.175L143.70625 27.175L143.70625 28.55L141.94063 28.55L141.94063 34.6125Q141.94063 35.3625 142.03438 35.58125Q142.12813 35.784374 142.33125 35.925Q142.55 36.05 142.94063 36.05Q143.22188 36.05 143.70625 35.971874ZM145.87813 25.253124L145.87813 23.2375L147.64375 23.2375L147.64375 25.253124L145.87813 25.253124ZM145.87813 37.55L145.87813 27.175L147.64375 27.175L147.64375 37.55L145.87813 37.55ZM149.22188 32.3625Q149.22188 29.4875 150.81563 28.096874Q152.15938 26.940624 154.08125 26.940624Q156.22188 26.940624 157.56563 28.346874Q158.925 29.753124 158.925 32.221874Q158.925 34.221874 158.33125 35.378124Q157.7375 36.51875 156.58125 37.159374Q155.44063 37.784374 154.08125 37.784374Q151.89375 37.784374 150.55 36.39375Q149.22188 34.9875 149.22188 32.3625ZM151.01875 32.3625Q151.01875 34.3625 151.87813 35.346874Q152.75313 36.33125 154.08125 36.33125Q155.39375 36.33125 156.25313 35.346874Q157.12813 34.346874 157.12813 32.3Q157.12813 30.378124 156.25313 29.39375Q155.37813 28.39375 154.08125 28.39375Q152.75313 28.39375 151.87813 29.39375Q151.01875 30.378124 151.01875 32.3625ZM160.8625 37.55L160.8625 27.175L162.45625 27.175L162.45625 28.659374Q163.59688 26.940624 165.75313 26.940624Q166.69063 26.940624 167.47188 27.284374Q168.26875 27.6125 168.65938 28.159374Q169.05 28.70625 169.20625 29.45625Q169.3 29.95625 169.3 31.175L169.3 37.55L167.53438 37.55L167.53438 31.2375Q167.53438 30.159374 167.33125 29.628124Q167.12813 29.096874 166.59688 28.784374Q166.08125 28.471874 165.37813 28.471874Q164.25313 28.471874 163.44063 29.190624Q162.62813 29.89375 162.62813 31.878124L162.62813 37.55L160.8625 37.55ZM180.70625 35.971874L180.95625 37.534374Q180.22188 37.690624 179.62813 37.690624Q178.675 37.690624 178.14375 37.39375Q177.62813 37.08125 177.40938 36.596874Q177.19063 36.096874 177.19063 34.51875L177.19063 28.55L175.90938 28.55L175.90938 27.175L177.19063 27.175L177.19063 24.6125L178.94063 23.55L178.94063 27.175L180.70625 27.175L180.70625 28.55L178.94063 28.55L178.94063 34.6125Q178.94063 35.3625 179.03438 35.58125Q179.12813 35.784374 179.33125 35.925Q179.55 36.05 179.94063 36.05Q180.22188 36.05 180.70625 35.971874ZM182.87813 25.253124L182.87813 23.2375L184.64375 23.2375L184.64375 25.253124L182.87813 25.253124ZM182.87813 37.55L182.87813 27.175L184.64375 27.175L184.64375 37.55L182.87813 37.55ZM186.8625 37.55L186.8625 27.175L188.44063 27.175L188.44063 28.628124Q188.925 27.878124 189.7375 27.409374Q190.55 26.940624 191.58125 26.940624Q192.7375 26.940624 193.47188 27.425Q194.20625 27.89375 194.51875 28.753124Q195.75313 26.940624 197.72188 26.940624Q199.26875 26.940624 200.09688 27.8Q200.925 28.659374 200.925 30.425L200.925 37.55L199.175 37.55L199.175 31.01875Q199.175 29.95625 199.00313 29.503124Q198.83125 29.034374 198.37813 28.753124Q197.94063 28.471874 197.33125 28.471874Q196.2375 28.471874 195.50313 29.20625Q194.78438 29.925 194.78438 31.51875L194.78438 37.55L193.03438 37.55L193.03438 30.815624Q193.03438 29.64375 192.59688 29.065624Q192.175 28.471874 191.19063 28.471874Q190.45625 28.471874 189.81563 28.8625Q189.19063 29.253124 188.90938 30.003124Q188.62813 30.753124 188.62813 32.175L188.62813 37.55L186.8625 37.55ZM209.97188 34.20625L211.78438 34.440624Q211.3625 36.01875 210.19063 36.909374Q209.03438 37.784374 207.22188 37.784374Q204.95625 37.784374 203.6125 36.39375Q202.28438 34.9875 202.28438 32.45625Q202.28438 29.83125 203.62813 28.39375Q204.97188 26.940624 207.12813 26.940624Q209.20625 26.940624 210.51875 28.3625Q211.84688 29.76875 211.84688 32.346874Q211.84688 32.503124 211.83125 32.815624L204.09688 32.815624Q204.19063 34.51875 205.06563 35.425Q205.94063 36.33125 207.2375 36.33125Q208.20625 36.33125 208.87813 35.83125Q209.56563 35.315624 209.97188 34.20625ZM204.19063 31.3625L209.9875 31.3625Q209.87813 30.065624 209.33125 29.409374Q208.4875 28.39375 207.14375 28.39375Q205.94063 28.39375 205.1125 29.20625Q204.28438 30.003124 204.19063 31.3625Z" fill-rule="nonzero"/></svg>